<svg xmlns="http://www.w3.org/2000/svg" width="146" height="127.777" viewBox="0 0 146 127.777">
  <g id="contact" transform="translate(0.007)">
    <path id="Path_197" data-name="Path 197" d="M269.63,297.267l-7.04-3.965a26.069,26.069,0,0,1,2.744-12.239c1.623,7.367,10.165,10.871,14.105,17.3a15.68,15.68,0,0,1,1.273,13.531l.463,5.712a26.275,26.275,0,0,1-16.5-14.556,25.381,25.381,0,0,1-1.761-6.119C266.2,297.284,269.63,297.267,269.63,297.267Z" transform="translate(-262.591 -253.724)" fill="#f2f2f2"/>
    <path id="Path_198" data-name="Path 198" d="M851,665.086l.216-4.854a15.679,15.679,0,0,1,7.312-1.851c-3.512,2.871-3.073,8.406-5.454,12.266a9.429,9.429,0,0,1-6.914,4.357l-2.939,1.8a15.8,15.8,0,0,1,3.33-12.8,15.264,15.264,0,0,1,2.8-2.606C850.061,663.251,851,665.086,851,665.086Z" transform="translate(-717.412 -549.409)" fill="#f2f2f2"/>
    <path id="Path_199" data-name="Path 199" d="M568.265,540.112H565.6l-1.266-10.264h3.927Z" transform="translate(-442.248 -415.214)" fill="#ffb6b6"/>
    <path id="Path_200" data-name="Path 200" d="M817.138,727.115h-8.58v-.109a3.34,3.34,0,0,1,3.339-3.34h0l1.567-1.189,2.924,1.189h.749Z" transform="translate(-690.442 -599.638)" fill="#2f2e41"/>
    <path id="Path_201" data-name="Path 201" d="M511.125,540.112h-2.661L507.2,529.848h3.927Z" transform="translate(-397.47 -415.214)" fill="#ffb6b6"/>
    <path id="Path_202" data-name="Path 202" d="M760,727.115h-8.58v-.109a3.34,3.34,0,0,1,3.339-3.34h0l1.567-1.189,2.924,1.189H760Z" transform="translate(-645.665 -599.638)" fill="#2f2e41"/>
    <path id="Path_203" data-name="Path 203" d="M766.976,472.631l17.308.433c3.287,1.785,3.337,5.65,2.26,10.238,0,0,.364,2.727-.364,3.454s-1.091.727-.727,2-1.557,3.351-1.324,3.584a9.407,9.407,0,0,1,.779,1.506l-1.818,10.363s-1.273,18-1.636,18.362-.727,0-.364.909.727.545.364.909a13.372,13.372,0,0,0-.909,1.091h-4.4s-.331-1.818-.331-2-.364-1.273-.364-1.454.321-.5.321-.5a5.979,5.979,0,0,0,.224-1.133c0-.364,1.091-14.362,1.091-14.362l-2.182-18.18-5.272,17.816s0,15.635-.364,16-.364.182-.182.909.909.545.364,1.091-.727-.364-.545.545l.182.909-5.454.078s-.727-1.532-.364-2.078.342-.4-.1-1.289-.625-1.074-.444-1.256.182-1.149.182-1.149l.909-17.395S764,483.665,764,483.12a1.814,1.814,0,0,0-.151-.818v-.74l.7-2.623Z" transform="translate(-654.474 -403.846)" fill="#2f2e41"/>
    <circle id="Ellipse_29" data-name="Ellipse 29" cx="5.378" cy="5.378" r="5.378" transform="translate(117.523 22.04)" fill="#ffb6b6"/>
    <path id="Path_204" data-name="Path 204" d="M784.942,313.244a5.551,5.551,0,0,0-2.25,3.242,30.721,30.721,0,0,0-1.32,7.341l-.42,7.459-5.2,15.882c4.51,3.816,21.464.867,21.464.867s.521-.173,0-.694-1.027-.059-.507-.58.162.059-.012-.461,0-.173.173-.347-1.343-1.735-1.343-1.735l1.388-9.116,1.735-18.388c-2.082-2.6-6.268-4.136-6.268-4.136l-1.082-1.947-5.409.433Z" transform="translate(-664.73 -276.895)" fill="#e6e6e6"/>
    <path id="Path_205" data-name="Path 205" d="M807.806,250.607a2.54,2.54,0,0,1,.617.081,8.78,8.78,0,0,0,1.207.2,5.593,5.593,0,0,1,5.008,4.744c.313-.272,1.024-.774,1.606-.308h0c.009.007.014.011.035,0,.387-.184,1.074-2.444,1.095-4.434.011-1.056-.155-2.4-1.009-2.832l-.045-.023-.012-.049c-.057-.238-.695-.643-1.8-.959-2.014-.574-5.016-1.691-6.706-.047-.128.554-.544,1.741-.965,1.875-.466.149-.868.277-.931.848a17.506,17.506,0,0,0,.012,2.44,2.492,2.492,0,0,1,.885-1.244A1.754,1.754,0,0,1,807.806,250.607Z" transform="translate(-688.332 -226.346)" fill="#2f2e41"/>
    <path id="Path_206" data-name="Path 206" d="M703.229,362.5l8.785-5.626-4.424-5.882-4.369,5.374-13.613.835a2.594,2.594,0,1,0-.145,3.823Z" transform="translate(-593.765 -308.525)" fill="#ffb6b6"/>
    <path id="Path_207" data-name="Path 207" d="M783.59,327.354c.51,3.086-9.118,8.978-9.118,8.978,0-.724-5.747,4.743-6.006,4.143-.737-1.707-1.256-5.75-2.286-6.4-.589-.37,3.548-3.847,3.548-3.847s2.166-2.182,5.007-4.933a6.63,6.63,0,0,1,6.141-1.795A4.724,4.724,0,0,1,783.59,327.354Z" transform="translate(-657.188 -286.856)" fill="#e6e6e6"/>
    <path id="Path_208" data-name="Path 208" d="M888.542,379.628l-5.811-8.663-5.787,4.548,5.466,4.254,1.123,13.592a2.594,2.594,0,1,0,3.825.064Z" transform="translate(-744.033 -324.175)" fill="#ffb6b6"/>
    <path id="Path_209" data-name="Path 209" d="M852.392,333.965c3.074-.575,9.169,8.926,9.169,8.926-.724.016,4.864,5.645,4.269,5.917-1.691.773-5.723,1.377-6.348,2.421-.358.6-3.921-3.466-3.921-3.466s-2.227-2.119-5.038-4.9a6.63,6.63,0,0,1-1.925-6.1A4.724,4.724,0,0,1,852.392,333.965Z" transform="translate(-721.718 -295.161)" fill="#e6e6e6"/>
    <path id="Path_210" data-name="Path 210" d="M715.9,743.176a.257.257,0,0,1-.258.258H655a.257.257,0,0,1,0-.515h60.641a.257.257,0,0,1,.258.257Z" transform="translate(-569.902 -615.656)" fill="#ccc"/>
    <path id="Path_211" data-name="Path 211" d="M395.471,383.493h-73.6a4.342,4.342,0,0,0-4.337,4.337v45.821a4.342,4.342,0,0,0,4.337,4.337h73.6a4.342,4.342,0,0,0,4.337-4.337V387.83A4.342,4.342,0,0,0,395.471,383.493Z" transform="translate(-305.655 -333.993)" fill="#16c389"/>
    <path id="Path_212" data-name="Path 212" d="M395.471,383.493h-73.6a4.342,4.342,0,0,0-4.337,4.337v45.821a4.342,4.342,0,0,0,4.337,4.337h73.6a4.342,4.342,0,0,0,4.337-4.337V387.83A4.342,4.342,0,0,0,395.471,383.493Zm1.423,32.914a17.829,17.829,0,0,1-17.528,17.759c-7.468.1,4.132.135-4.875.135-20.6,0-42.07-.2-50.083-.324a4.04,4.04,0,0,1-3.957-4.024V387.833a1.428,1.428,0,0,1,1.423-1.426h73.594a1.428,1.428,0,0,1,1.426,1.423Z" transform="translate(-305.655 -333.993)" fill="#3f3d56"/>
    <path id="Path_213" data-name="Path 213" d="M392.7,261.538H336.625a2.41,2.41,0,0,0-2.265,1.6l-8.66,24.3a2.405,2.405,0,0,0,2.262,3.213l75.2.133h0a2.405,2.405,0,0,0,2.21-3.352l-.131.056.131-.056L394.909,263A2.4,2.4,0,0,0,392.7,261.538Z" transform="translate(-311.942 -238.423)" fill="#3f3d56"/>
    <path id="Path_214" data-name="Path 214" d="M405.573,374.917a2.411,2.411,0,0,1-.195.948L394.909,394.67a2.412,2.412,0,0,1-2.211,1.456H336.626a2.411,2.411,0,0,1-2.267-1.6L325.7,375.858a2.4,2.4,0,0,1,1.458-3.072,2.366,2.366,0,0,1,.8-.141l9.186-.017,3.749-.007,49.337-.087,3.752-.007,9.18-.017h0a2.406,2.406,0,0,1,2.406,2.405Z" transform="translate(-311.942 -325.387)" fill="#3f3d56"/>
    <path id="Path_215" data-name="Path 215" d="M355.792,542.358c1.112,0,16.381.933,16.381,2.045s-15.269,1.981-16.381,1.981a2.013,2.013,0,1,1,0-4.027Z" transform="translate(-334.055 -458.487)" fill="#3f3d56"/>
    <path id="Path_216" data-name="Path 216" d="M431.178,193.221H383.9A4.785,4.785,0,0,0,379.119,198v57.625H434.67a2.375,2.375,0,0,0,1.287-.374V198A4.785,4.785,0,0,0,431.178,193.221Z" transform="translate(-353.913 -184.887)" fill="#e6e6e6"/>
    <path id="Path_217" data-name="Path 217" d="M426.712,211.131H400.8a4.357,4.357,0,0,0-4.353,4.351v54.179h49.337V230.2A19.1,19.1,0,0,0,426.712,211.131Z" transform="translate(-367.494 -198.922)" fill="#fff"/>
    <path id="Path_218" data-name="Path 218" d="M463.986,459.421H431.459a1.06,1.06,0,1,0,0,2.12h32.526a1.06,1.06,0,1,0,0-2.12Z" transform="translate(-394.099 -393.494)" fill="#e4e4e4"/>
    <path id="Path_219" data-name="Path 219" d="M463.982,440.041H431.455a1.061,1.061,0,1,0,0,2.122h32.526a1.061,1.061,0,1,0,0-2.122Z" transform="translate(-394.095 -378.307)" fill="#e4e4e4"/>
    <path id="Path_220" data-name="Path 220" d="M445.558,420.671h-14.1a1.06,1.06,0,0,0,0,2.12h14.1a1.06,1.06,0,1,0,0-2.12Z" transform="translate(-394.098 -363.128)" fill="#e4e4e4"/>
    <path id="Path_221" data-name="Path 221" d="M463.982,380.091H431.455a1.061,1.061,0,1,0,0,2.122h32.526a1.061,1.061,0,1,0,0-2.122Z" transform="translate(-394.095 -331.327)" fill="#e4e4e4"/>
    <path id="Path_222" data-name="Path 222" d="M463.986,360.721H431.459a1.06,1.06,0,0,0,0,2.12h32.526a1.06,1.06,0,0,0,0-2.12Z" transform="translate(-394.099 -316.148)" fill="#e4e4e4"/>
    <path id="Path_223" data-name="Path 223" d="M445.554,341.341h-14.1a1.061,1.061,0,0,0,0,2.122h14.1a1.061,1.061,0,1,0,0-2.122Z" transform="translate(-394.094 -300.961)" fill="#e4e4e4"/>
    <path id="Path_224" data-name="Path 224" d="M463.982,300.761H431.455a1.061,1.061,0,1,0,0,2.122h32.526a1.061,1.061,0,1,0,0-2.122Z" transform="translate(-394.095 -269.16)" fill="#16c389"/>
    <path id="Path_225" data-name="Path 225" d="M463.982,281.391H431.455a1.061,1.061,0,1,0,0,2.122h32.526a1.061,1.061,0,1,0,0-2.122Z" transform="translate(-394.095 -253.981)" fill="#16c389"/>
    <path id="Path_226" data-name="Path 226" d="M445.554,262.011h-14.1a1.061,1.061,0,0,0,0,2.122h14.1a1.061,1.061,0,1,0,0-2.122Z" transform="translate(-394.094 -238.794)" fill="#16c389"/>
    <circle id="Ellipse_30" data-name="Ellipse 30" cx="8.257" cy="8.257" r="8.257" transform="translate(72.014 0)" fill="#16c389"/>
    <path id="Path_227" data-name="Path 227" d="M616.945,181.595a.918.918,0,0,1-.735-.367l-2.253-3a.918.918,0,0,1,1.47-1.1l1.474,1.965,3.785-5.677a.918.918,0,1,1,1.528,1.019l-4.505,6.758a.919.919,0,0,1-.739.409Z" transform="translate(-537.8 -169.041)" fill="#fff"/>
  </g>
</svg>
