<svg xmlns="http://www.w3.org/2000/svg" width="223.884" height="123.035" viewBox="0 0 223.884 123.035">
  <g id="game" transform="translate(-0.011 0.03)">
    <path id="Path_73" data-name="Path 73" d="M434.939,516.256a7.783,7.783,0,0,1,.931-1.236,1.776,1.776,0,0,1-.144.107,2.38,2.38,0,0,0-.645.406,1.342,1.342,0,0,0-.232.548l-.548,2.131c.107-.135.215-.269.325-.4A3.766,3.766,0,0,1,434.939,516.256Z" transform="translate(-357.974 -439.554)" fill="#f2f2f2"/>
    <path id="Path_74" data-name="Path 74" d="M672.854,517.53a2.42,2.42,0,0,1-.215.694,9.7,9.7,0,0,1-.364,2.675,8.249,8.249,0,0,0-.226,1.116c-.507,3.47-1,7.1-.131,10.458a1.271,1.271,0,0,1,.329-.538,5.532,5.532,0,0,0,.967-2.509c.892-4.689.645-9.473.43-14.263a1.586,1.586,0,0,0-.469-.353,4.3,4.3,0,0,1-.015.626,20.781,20.781,0,0,1-.307,2.094Z" transform="translate(-544.131 -439.389)" fill="#f2f2f2"/>
    <path id="Path_75" data-name="Path 75" d="M532.742,513.782a2.2,2.2,0,0,0-.168-.817,2.542,2.542,0,0,0-.417-.576l-.464-.529c-.237,5.616-.74,11.247.305,16.746a5.53,5.53,0,0,0,.968,2.509,1.272,1.272,0,0,1,.329.538c.86-3.354.376-6.988-.131-10.458a8.211,8.211,0,0,0-.226-1.116,10.66,10.66,0,0,1-.262-4.319A10.1,10.1,0,0,0,532.742,513.782Z" transform="translate(-434.167 -437.073)" fill="#f2f2f2"/>
    <path id="Path_76" data-name="Path 76" d="M550.16,461.274a14.726,14.726,0,0,1,1.357,3.395l.148.5c-.071-1.7-.105-3.4-.118-5.1q-.5.447-1.013.884Z" transform="translate(-448.923 -396.418)" fill="#f2f2f2"/>
    <path id="Path_77" data-name="Path 77" d="M552,643.315a11.487,11.487,0,0,0-.273-3.552,10.547,10.547,0,0,1-.507-2.217,6.8,6.8,0,0,1,.185-1.5c.884-4.5,1.264-9.222-.073-13.6-.359-1.174-.834-2.309-1.2-3.479a8.447,8.447,0,0,1-.606,1.268,1.314,1.314,0,0,0-.733-.86,4.334,4.334,0,0,1-.015.626,20.8,20.8,0,0,1-.3,2.094,2.117,2.117,0,0,1-.264.785,1.768,1.768,0,0,1-.692.572c.125.284.249.565.372.86l-.9.254c.589,1.29.1,2.763-.215,4.132-1.125,4.771-.112,9.867-.645,14.691Z" transform="translate(-445.768 -521.147)" fill="#f2f2f2"/>
    <path id="Path_78" data-name="Path 78" d="M555.939,410.256a7.8,7.8,0,0,1,.931-1.236,1.769,1.769,0,0,1-.144.107,2.381,2.381,0,0,0-.645.406,1.341,1.341,0,0,0-.232.548l-.548,2.131c.108-.135.215-.269.325-.4A3.766,3.766,0,0,1,555.939,410.256Z" transform="translate(-452.958 -356.344)" fill="#f2f2f2"/>
    <path id="Path_79" data-name="Path 79" d="M653.748,407.782a2.2,2.2,0,0,0-.168-.817,2.539,2.539,0,0,0-.417-.576l-.464-.529c-.232,5.532-.723,11.077.262,16.5.174-.587.35-1.172.525-1.757a17.859,17.859,0,0,1,1.034-2.814c-.1-.86-.226-1.735-.35-2.591a8.232,8.232,0,0,0-.226-1.116,10.659,10.659,0,0,1-.262-4.319A10.113,10.113,0,0,0,653.748,407.782Z" transform="translate(-529.158 -353.864)" fill="#f2f2f2"/>
    <path id="Path_80" data-name="Path 80" d="M612.485,611.37l-.735,25.9,1.935-.022a80.853,80.853,0,0,1-.464-9.49,13.256,13.256,0,0,0-.159-2.756c-.135-.63-.372-1.234-.5-1.866a11.163,11.163,0,0,1-.144-2.29Z" transform="translate(-497.271 -515.188)" fill="#f2f2f2"/>
    <path id="Path_81" data-name="Path 81" d="M537.1,607.758c.03-.073.06-.142.088-.215.1-.262.191-.527.275-.793l-.017.03c-.17.279-.355.548-.546.813C536.969,607.644,537.035,607.7,537.1,607.758Z" transform="translate(-438.514 -511.562)" fill="#f2f2f2"/>
    <path id="Path_82" data-name="Path 82" d="M260.742,469.782a2.2,2.2,0,0,0-.168-.817,2.543,2.543,0,0,0-.417-.576l-.464-.529c-.236,5.616-.74,11.247.305,16.747a5.531,5.531,0,0,0,.967,2.509,1.272,1.272,0,0,1,.329.538c.86-3.354.376-6.988-.131-10.458a8.208,8.208,0,0,0-.215-1.116,10.661,10.661,0,0,1-.273-4.319,10.1,10.1,0,0,0,.067-1.978Z" transform="translate(-220.648 -402.534)" fill="#f2f2f2"/>
    <path id="Path_83" data-name="Path 83" d="M265.1,563.758c.03-.073.06-.142.088-.215.1-.262.191-.527.275-.793l-.017.03c-.17.279-.355.548-.546.813C264.969,563.645,265.035,563.7,265.1,563.758Z" transform="translate(-224.995 -477.022)" fill="#f2f2f2"/>
    <path id="Path_84" data-name="Path 84" d="M220.773,673.37q-.189,6.74-.383,13.481l.922-.011c-.138-.572-.342-1.129-.46-1.707a11.162,11.162,0,0,1-.144-2.29Z" transform="translate(-190.055 -563.858)" fill="#f2f2f2"/>
    <path id="Path_85" data-name="Path 85" d="M269.354,708.878a1.768,1.768,0,0,1-.692-.572,2.12,2.12,0,0,1-.264-.785,20.768,20.768,0,0,1-.3-2.094,4.324,4.324,0,0,1-.015-.626,1.314,1.314,0,0,0-.733.86,10.025,10.025,0,0,1-1.208-3.6c-.065.215-.131.451-.215.677a18.212,18.212,0,0,0-1.226,4.016,7.957,7.957,0,0,0,.215,2.509l4.27-.045Z" transform="translate(-224.822 -586.38)" fill="#f2f2f2"/>
    <path id="Path_86" data-name="Path 86" d="M299.48,700.75c.084.267.174.531.275.793.028.073.058.142.088.215.064-.058.131-.114.2-.166-.191-.264-.376-.533-.546-.813Z" transform="translate(-252.14 -585.352)" fill="#f2f2f2"/>
    <path id="Path_87" data-name="Path 87" d="M409.8,671.883a26.64,26.64,0,0,1-.617-3.894l-1.023-9.46c-.011-.084-.019-.166-.028-.249-.013.041-.024.082-.037.122a6.808,6.808,0,0,1-1.29,2.036c-.514.628-1.157,1.275-1.911,1.092a2.058,2.058,0,0,1-.819-.507l-1.72-1.486q-.509-.43-1.013-.884c-.015,2.075-.062,4.15-.17,6.22a4.537,4.537,0,0,1-.4,1.913,21.9,21.9,0,0,1,1.045,6.093c.015.561,0,1.12-.017,1.681l5.04-.054h.03l3.79-.041A26.005,26.005,0,0,1,409.8,671.883Z" transform="translate(-331.653 -552.013)" fill="#f2f2f2"/>
    <path id="Path_88" data-name="Path 88" d="M398.6,611.842l.325.4-.548-2.122a1.342,1.342,0,0,0-.232-.548,2.379,2.379,0,0,0-.645-.406,1.788,1.788,0,0,1-.144-.107,7.783,7.783,0,0,1,.931,1.236A3.764,3.764,0,0,1,398.6,611.842Z" transform="translate(-328.976 -513.375)" fill="#f2f2f2"/>
    <path id="Path_89" data-name="Path 89" d="M431.222,568.65c.135,1.492.215,2.991.29,4.489s.153,2.958.228,4.438a21.868,21.868,0,0,1,.8-3.373,4.506,4.506,0,0,1-.4-1.914c-.107-2.07-.155-4.145-.17-6.22-.329.294-.662.583-1,.86A12.067,12.067,0,0,1,431.222,568.65Z" transform="translate(-355.36 -479.628)" fill="#f2f2f2"/>
    <path id="Path_90" data-name="Path 90" d="M297.079,615.235c-.507,3.47-1,7.1-.131,10.458a1.272,1.272,0,0,1,.329-.537,5.531,5.531,0,0,0,.968-2.509c1.045-5.5.542-11.131.305-16.747l-.458.529a2.544,2.544,0,0,0-.43.568,2.2,2.2,0,0,0-.174.808,10.1,10.1,0,0,0,.067,1.974,10.66,10.66,0,0,1-.256,4.332A8.2,8.2,0,0,0,297.079,615.235Z" transform="translate(-249.781 -510.895)" fill="#f2f2f2"/>
    <path id="Path_91" data-name="Path 91" d="M658.389,664.11l1.686-.019c-.9-5.175.4-10.733-.823-15.91a16.135,16.135,0,0,1-.49-2.47,13.641,13.641,0,0,0-1.034,3.479c-.2,2.094.789,4.1,1.154,6.166.5,2.853-.178,5.762-.482,8.643C658.4,664.047,658.394,664.073,658.389,664.11Z" transform="translate(-533.343 -542.145)" fill="#f2f2f2"/>
    <path id="Path_92" data-name="Path 92" d="M907.878,632.062c-1.952-5.818,0-12.3-1.413-18.275-.325-1.37-.815-2.853-.215-4.132l-.9-.273c.123-.284.247-.565.372-.86a2.226,2.226,0,0,1-.482-.331l-.658,6.065a26.636,26.636,0,0,1-.617,3.894c-.372,1.432-.976,2.795-1.408,4.2a26.136,26.136,0,0,0-.406,11.731l6.45-.071C908.369,633.367,908.1,632.72,907.878,632.062Z" transform="translate(-724.872 -512.692)" fill="#f2f2f2"/>
    <path id="Path_93" data-name="Path 93" d="M914.056,448.82l.017-.06.077-.251a2.77,2.77,0,0,0-.606-.381q-.075-.05-.144-.107C913.613,448.291,913.852,448.545,914.056,448.82Z" transform="translate(-734.066 -386.959)" fill="#f2f2f2"/>
    <path id="Path_94" data-name="Path 94" d="M815.48,539.75c.084.267.174.531.275.793.028.073.058.142.088.215.064-.058.131-.114.2-.166-.191-.264-.376-.533-.546-.813Z" transform="translate(-657.199 -458.967)" fill="#f2f2f2"/>
    <path id="Path_95" data-name="Path 95" d="M932.245,521.388a47.5,47.5,0,0,0,.585-10.518,1.374,1.374,0,0,1-1.176.34l-.037-.011a9.123,9.123,0,0,1-.312,1.662,8.19,8.19,0,0,0-.226,1.116c-.508,3.47-1,7.1-.131,10.458a1.272,1.272,0,0,1,.329-.537A5.535,5.535,0,0,0,932.245,521.388Z" transform="translate(-747.469 -436.296)" fill="#f2f2f2"/>
    <path id="Path_96" data-name="Path 96" d="M493.8,720.752q0-1.69.021-3.382-.049,1.694-.095,3.384Z" transform="translate(-404.626 -598.398)" fill="#f2f2f2"/>
    <path id="Path_97" data-name="Path 97" d="M302.5,207.347q-.215-1.217-.51-2.389c-2.086-8.432-6.968-15.162-15.91-18.8q-1.15-.467-2.391-.86a40.657,40.657,0,0,0-5.753-1.376c-18.757-3.137-34.529-1.645-48.747,1.185-.8.157-1.6.322-2.391.49-19.931,4.212-36.9,10.737-55.013,10.167-.793-.024-1.591-.062-2.389-.114a67.669,67.669,0,0,1-24.762-6.568c-10.309-4.857-20.793-3.225-30.251,2.559a59.568,59.568,0,0,0-14.82,13.33l-.015.017q-.946,1.161-1.858,2.365c-14.545,19.324-22.62,48.221-16,70.613q.357,1.211.774,2.391a43.3,43.3,0,0,0,8.665,14.807,18.574,18.574,0,0,0,8.4,5.321c.555.17,1.12.312,1.692.43a22.772,22.772,0,0,0-.819-8.033c-.43-1.413-1.036-2.771-1.408-4.2a26.639,26.639,0,0,1-.617-3.894l-1.023-9.46a42.121,42.121,0,0,1-.372-5.859,21.9,21.9,0,0,1,1.045-6.093,4.5,4.5,0,0,1-.4-1.914c-.107-2.07-.155-4.145-.17-6.22q-.5.447-1.013.884l-1.731,1.486a2.058,2.058,0,0,1-.819.507c-.755.183-1.423-.488-1.911-1.092a7.165,7.165,0,0,1-1.29-2.036,6.375,6.375,0,0,1-.234-2.184c.017-.944.065-1.886.114-2.827L91,242.115c.077-1.505.155-3,.29-4.489a7.116,7.116,0,0,1,.787-3.085c1.038-1.72,3.266-2.322,5.289-2.176a.755.755,0,0,1-.019-.645,1.141,1.141,0,0,1,.52-.43l2.984-1.6a1.656,1.656,0,0,1,.7-.247.826.826,0,0,1,.383.08l.578-.4a1.5,1.5,0,0,1,.43-.234,1.015,1.015,0,0,1,.587.028,2.35,2.35,0,0,0,.247-.931,3.313,3.313,0,0,0-.254-1.174,5.674,5.674,0,0,1-2.249-4.474c-.645-.361-1.475-.565-1.737-1.327-.178-.516.034-1.088-.039-1.63a1.318,1.318,0,0,1-.318-.5c-.185-.538.056-1.135-.043-1.694a2.475,2.475,0,0,1-.153-.914,1.336,1.336,0,0,1,.34-.572l2.113-2.5a5.524,5.524,0,0,1,1.589-1.445c1.535-.787,3.373,0,5.1,0a5.339,5.339,0,0,1,1.72.1,3.593,3.593,0,0,1,1.062.675l2.365,1.935A3.852,3.852,0,0,1,115,216.893a2.27,2.27,0,0,1-.133.912,2.365,2.365,0,0,1,.488,1.219,3.24,3.24,0,0,1-.686,1.978,10.471,10.471,0,0,1-2.15,2.333,5.67,5.67,0,0,1-1.361,2.737,17.754,17.754,0,0,0,.611,2.215.263.263,0,0,1,.015.037,1.075,1.075,0,0,1,.559.2,2.937,2.937,0,0,1,.464.43.662.662,0,0,1,.314-.262,1.29,1.29,0,0,1,.987.159,10.125,10.125,0,0,1,2.685,1.576,3.408,3.408,0,0,1,.7.89,4.414,4.414,0,0,1,3.1.7c1.625,1.114,2.294,3.148,2.86,5.035l1.266,4.233a19.474,19.474,0,0,1,.879,10.92c-.333,2.412.452,5.061.462,7.5,0,.626,0,1.258-.015,1.892a4.412,4.412,0,0,1,2.935-.621,3.41,3.41,0,0,1,.7-.89,10.245,10.245,0,0,1,2.685-1.576,1.29,1.29,0,0,1,.987-.159.662.662,0,0,1,.314.262,2.937,2.937,0,0,1,.464-.43,1.074,1.074,0,0,1,.559-.2.265.265,0,0,1,.015-.037,17.755,17.755,0,0,0,.611-2.214,5.669,5.669,0,0,1-1.361-2.737,10.472,10.472,0,0,1-2.15-2.333,3.24,3.24,0,0,1-.686-1.978,2.365,2.365,0,0,1,.488-1.219,2.271,2.271,0,0,1-.133-.912,3.863,3.863,0,0,1,1.731-2.438l2.365-1.935a3.593,3.593,0,0,1,1.062-.675,5.345,5.345,0,0,1,1.72-.1c1.72,0,3.563-.783,5.1,0a5.469,5.469,0,0,1,1.589,1.445l2.113,2.5a1.334,1.334,0,0,1,.34.572,2.519,2.519,0,0,1-.153.914c-.1.559.142,1.157-.043,1.694a1.318,1.318,0,0,1-.318.5c-.073.542.14,1.114-.039,1.63-.262.761-1.088.965-1.737,1.327a5.674,5.674,0,0,1-2.247,4.455,3.313,3.313,0,0,0-.254,1.174,2.35,2.35,0,0,0,.247.931,1.015,1.015,0,0,1,.587-.028,1.5,1.5,0,0,1,.43.234l.578.4a.825.825,0,0,1,.383-.08,1.656,1.656,0,0,1,.7.247l2.984,1.6a2,2,0,0,1,.365.243c.024-.578.049-1.159.08-1.737l.419-7.856c.077-1.5.155-3,.29-4.489a7.115,7.115,0,0,1,.787-3.085c1.038-1.72,3.266-2.322,5.289-2.176a.755.755,0,0,1-.019-.645,1.142,1.142,0,0,1,.52-.43l2.984-1.6a1.656,1.656,0,0,1,.7-.247.827.827,0,0,1,.383.08l.578-.4a1.5,1.5,0,0,1,.43-.234,1.014,1.014,0,0,1,.587.028,2.351,2.351,0,0,0,.247-.931,3.314,3.314,0,0,0-.254-1.174,5.674,5.674,0,0,1-2.249-4.474c-.645-.361-1.475-.565-1.737-1.327-.178-.516.034-1.088-.039-1.63a1.318,1.318,0,0,1-.318-.5c-.185-.537.056-1.135-.043-1.694a5.41,5.41,0,0,1-.163-.737,6.188,6.188,0,0,0-.537,1.393c-.3,1.219-.249,2.5-.43,3.739a1.506,1.506,0,0,1-.55,1.116,6.122,6.122,0,0,1-.948.288,1.616,1.616,0,0,0-.86,1.318,12.771,12.771,0,0,0,.015,1.647,4.154,4.154,0,0,1-1.946,3.627c-1.653.924-3.707.312-5.493-.316a4.848,4.848,0,0,0,2.051-1.423l-1.965-.4a12.731,12.731,0,0,0,3.133-2.079,2.7,2.7,0,0,0,.8-1.049c.215-.6.015-1.29.215-1.894.333-1.034,1.6-1.425,2.245-2.3a4.48,4.48,0,0,0,.583-2.728l-.011-3.608c0-1.038.067-2.236.894-2.866.922-.7,2.23-.3,3.391-.31a33.277,33.277,0,0,0,3.606-.645c1.148-.131,3.064.673,3.032,1.585a13.489,13.489,0,0,0,1.935.2,5.337,5.337,0,0,1,1.72.1,3.593,3.593,0,0,1,1.062.675l2.365,1.935a3.8,3.8,0,0,1,1.72,2.438,2.27,2.27,0,0,1-.133.912,2.365,2.365,0,0,1,.488,1.219,3.24,3.24,0,0,1-.686,1.978,10.471,10.471,0,0,1-2.15,2.333,5.669,5.669,0,0,1-1.361,2.737,17.747,17.747,0,0,0,.611,2.215.26.26,0,0,1,.015.037,1.076,1.076,0,0,1,.559.2,2.939,2.939,0,0,1,.464.43.662.662,0,0,1,.314-.262,1.29,1.29,0,0,1,.987.159,11.923,11.923,0,0,1,2.365,1.311v-.131c.017-.944.064-1.886.114-2.827l.43-7.869c.077-1.505.155-3,.29-4.489a7.116,7.116,0,0,1,.787-3.085c1.038-1.72,3.266-2.322,5.289-2.176a.755.755,0,0,1-.019-.645,1.142,1.142,0,0,1,.52-.43l2.984-1.6a1.655,1.655,0,0,1,.7-.247.826.826,0,0,1,.383.08l.578-.4a1.5,1.5,0,0,1,.43-.234,1.015,1.015,0,0,1,.587.028,2.349,2.349,0,0,0,.247-.931,3.313,3.313,0,0,0-.254-1.174A5.674,5.674,0,0,1,185.767,209c-.645-.361-1.475-.565-1.737-1.327-.178-.516.034-1.088-.039-1.63a1.318,1.318,0,0,1-.318-.5c-.185-.537.056-1.135-.043-1.694a2.473,2.473,0,0,1-.153-.914,1.335,1.335,0,0,1,.34-.572l2.113-2.5a5.524,5.524,0,0,1,1.589-1.445c1.535-.787,3.373,0,5.1,0a5.339,5.339,0,0,1,1.72.1,3.593,3.593,0,0,1,1.062.675l2.365,1.935a3.8,3.8,0,0,1,1.72,2.438,2.271,2.271,0,0,1-.133.912,2.365,2.365,0,0,1,.488,1.219,3.24,3.24,0,0,1-.686,1.978A10.47,10.47,0,0,1,197,210a5.67,5.67,0,0,1-1.361,2.737,17.75,17.75,0,0,0,.611,2.215.263.263,0,0,1,.015.037,1.075,1.075,0,0,1,.559.2,2.94,2.94,0,0,1,.464.43.662.662,0,0,1,.314-.262,1.29,1.29,0,0,1,.987.159,10.127,10.127,0,0,1,2.685,1.576,3.407,3.407,0,0,1,.7.89,4.414,4.414,0,0,1,3.111.7c1.625,1.114,2.294,3.148,2.86,5.035l1.266,4.233a25.984,25.984,0,0,1,1.243,5.659,24.368,24.368,0,0,1-.318,4.919c.054-.056.107-.112.168-.166a10.244,10.244,0,0,1,2.685-1.576,1.29,1.29,0,0,1,.987-.159.662.662,0,0,1,.314.262,2.939,2.939,0,0,1,.464-.43,1.075,1.075,0,0,1,.559-.2.262.262,0,0,1,.015-.037,17.759,17.759,0,0,0,.611-2.215,5.67,5.67,0,0,1-1.361-2.737,10.472,10.472,0,0,1-2.15-2.333,3.24,3.24,0,0,1-.686-1.978,2.365,2.365,0,0,1,.488-1.219,2.27,2.27,0,0,1-.133-.912,3.886,3.886,0,0,1,1.72-2.438l2.365-1.935a3.592,3.592,0,0,1,1.062-.675,5.345,5.345,0,0,1,1.72-.1,13.493,13.493,0,0,0,1.935-.2c-.032-.912,1.883-1.72,3.032-1.585a32.184,32.184,0,0,0,3.606.645c1.161,0,2.468-.393,3.391.31.828.63.9,1.828.894,2.866l.009,3.621a4.5,4.5,0,0,0,.583,2.728c.615.83,1.791,1.228,2.189,2.15a6.493,6.493,0,0,1,2.232-3.152,4.414,4.414,0,0,1,3.085-.714,3.409,3.409,0,0,1,.7-.89,10.245,10.245,0,0,1,2.685-1.576,1.29,1.29,0,0,1,.987-.159.662.662,0,0,1,.314.262,2.936,2.936,0,0,1,.464-.43,1.075,1.075,0,0,1,.559-.2.257.257,0,0,1,.015-.037,17.75,17.75,0,0,0,.611-2.215,5.671,5.671,0,0,1-1.361-2.737,10.471,10.471,0,0,1-2.15-2.333,3.239,3.239,0,0,1-.686-1.978,2.365,2.365,0,0,1,.488-1.219,2.27,2.27,0,0,1-.133-.912,3.885,3.885,0,0,1,1.72-2.438l2.365-1.935a3.593,3.593,0,0,1,1.062-.675,5.345,5.345,0,0,1,1.72-.1,13.5,13.5,0,0,0,1.935-.2c-.032-.912,1.883-1.72,3.031-1.585a32.17,32.17,0,0,0,3.606.645c1.161,0,2.468-.393,3.391.31.828.63.9,1.828.894,2.866l.009,3.614a4.5,4.5,0,0,0,.583,2.728c.645.873,1.911,1.264,2.245,2.3.193.606,0,1.29.215,1.894a2.7,2.7,0,0,0,.8,1.049,12.662,12.662,0,0,0,1.537,1.187,2.58,2.58,0,0,1,.406-.793,2.271,2.271,0,0,1-.133-.912,3.886,3.886,0,0,1,1.72-2.438l2.365-1.935a3.591,3.591,0,0,1,1.062-.675,5.344,5.344,0,0,1,1.72-.1c1.72,0,3.563-.783,5.1,0a5.468,5.468,0,0,1,1.589,1.445l2.113,2.5a1.335,1.335,0,0,1,.34.572,2.52,2.52,0,0,1-.153.914c-.1.559.142,1.157-.043,1.694a1.318,1.318,0,0,1-.318.5c-.073.542.14,1.114-.039,1.63-.262.761-1.088.965-1.737,1.327a5.674,5.674,0,0,1-2.247,4.455,3.314,3.314,0,0,0-.254,1.174,2.351,2.351,0,0,0,.247.931,1.015,1.015,0,0,1,.587-.028,1.5,1.5,0,0,1,.43.234l.578.4a.826.826,0,0,1,.383-.08,1.656,1.656,0,0,1,.7.247l2.984,1.6a1.142,1.142,0,0,1,.52.43.755.755,0,0,1-.019.645c2.023-.146,4.251.454,5.289,2.176a7.148,7.148,0,0,1,.787,3.085c.135,1.492.215,2.991.29,4.489l.406,7.878c.049.942.1,1.883.114,2.827a6.375,6.375,0,0,1-.234,2.184,6.806,6.806,0,0,1-1.29,2.036c-.514.628-1.157,1.275-1.911,1.092a2.059,2.059,0,0,1-.819-.507l-1.731-1.486q-.51-.43-1.013-.884c-.015,2.075-.062,4.15-.17,6.22a4.538,4.538,0,0,1-.4,1.914,21.9,21.9,0,0,1,1.045,6.093,38.536,38.536,0,0,1-.284,5.05q.271-.574.544-1.161C295.394,256.4,306.168,227.628,302.5,207.347Z" transform="translate(-79.34 -178.264)" fill="#d8d7d7"/>
    <path id="Path_98" data-name="Path 98" d="M162.888,472.122l-.548,2.131c.108-.135.215-.269.325-.4a3.764,3.764,0,0,1,.305-1.554,7.787,7.787,0,0,1,.931-1.236,1.791,1.791,0,0,1-.144.108,2.379,2.379,0,0,0-.645.406,1.342,1.342,0,0,0-.224.548Z" transform="translate(-144.486 -405.045)" fill="#f2f2f2"/>
    <path id="Path_99" data-name="Path 99" d="M773.6,510.842l.325.4-.548-2.122a1.343,1.343,0,0,0-.232-.548,2.379,2.379,0,0,0-.645-.406q-.075-.05-.144-.108a7.808,7.808,0,0,1,.931,1.236,3.763,3.763,0,0,1,.314,1.546Z" transform="translate(-623.35 -434.09)" fill="#f2f2f2"/>
    <path id="Path_100" data-name="Path 100" d="M933.843,577.758c.064-.058.131-.114.2-.165-.191-.265-.376-.533-.546-.813l-.017-.03c.084.267.174.531.275.793A2.233,2.233,0,0,0,933.843,577.758Z" transform="translate(-749.829 -488.012)" fill="#f2f2f2"/>
    <path id="Path_101" data-name="Path 101" d="M674.48,599.75c.084.267.174.531.275.793.028.073.058.142.088.215.065-.058.131-.114.2-.166-.191-.264-.376-.533-.546-.813Z" transform="translate(-546.514 -506.067)" fill="#f2f2f2"/>
    <path id="Path_102" data-name="Path 102" d="M751.571,384.452a5.674,5.674,0,0,1-2.247,4.455,3.31,3.31,0,0,0-.254,1.174,2.348,2.348,0,0,0,.247.931,1.015,1.015,0,0,1,.587-.028,1.5,1.5,0,0,1,.43.234l.578.4a.825.825,0,0,1,.383-.079,1.656,1.656,0,0,1,.7.247l2.984,1.6a1.142,1.142,0,0,1,.52.43.755.755,0,0,1-.019.645,7.846,7.846,0,0,1,1.916.095,31.982,31.982,0,0,1,.892-3.556,4.427,4.427,0,0,1-1.1-2.95,12.389,12.389,0,0,0,.015-1.647,1.619,1.619,0,0,0-.86-1.318,5.98,5.98,0,0,1-.948-.288,1.5,1.5,0,0,1-.551-1.116c-.187-1.243-.133-2.52-.43-3.739a6.185,6.185,0,0,0-.537-1.393,5.416,5.416,0,0,1-.163.737c-.1.559.142,1.157-.043,1.694a1.319,1.319,0,0,1-.318.5c-.073.542.14,1.114-.039,1.63C753.045,383.882,752.22,384.086,751.571,384.452Z" transform="translate(-605.067 -332.425)" fill="#f2f2f2"/>
    <path id="Path_103" data-name="Path 103" d="M813.079,454.235c-.507,3.47-1,7.1-.131,10.458a1.273,1.273,0,0,1,.329-.537,5.531,5.531,0,0,0,.967-2.509c1.045-5.5.542-11.131.305-16.747l-.458.529a2.54,2.54,0,0,0-.43.568,2.2,2.2,0,0,0-.174.808,10.1,10.1,0,0,0,.067,1.974,10.66,10.66,0,0,1-.256,4.332A8.213,8.213,0,0,0,813.079,454.235Z" transform="translate(-654.839 -384.51)" fill="#f2f2f2"/>
    <path id="Path_104" data-name="Path 104" d="M773.364,561.665a1.334,1.334,0,0,1-1.1.282,2.056,2.056,0,0,1-.819-.508l-1.72-1.486q-.509-.43-1.013-.884c-.015,2.075-.062,4.15-.17,6.22a4.539,4.539,0,0,1-.4,1.914,21.9,21.9,0,0,1,1.045,6.093,43.476,43.476,0,0,1-.372,5.859q-.509,4.73-1.023,9.46a26.646,26.646,0,0,1-.617,3.894c-.3,1.142-.742,2.238-1.129,3.354l2.2-.024,2.8-.03h.344l4.73-.052a.035.035,0,0,0,0-.015c.365-2.068,1.35-4.072,1.155-6.166a18.208,18.208,0,0,0-1.225-4.016c-1.952-5.818,0-12.3-1.413-18.275-.325-1.37-.815-2.853-.215-4.132l-.9-.273c.123-.284.247-.565.372-.86A2.209,2.209,0,0,1,773.364,561.665Z" transform="translate(-618.396 -474.133)" fill="#f2f2f2"/>
    <path id="Path_105" data-name="Path 105" d="M719.83,710.37q.013,2.18.028,4.36h.095Z" transform="translate(-582.114 -592.903)" fill="#f2f2f2"/>
    <path id="Path_106" data-name="Path 106" d="M978.83,687.37q.022,3.294.043,6.581l.142-.084Q978.92,690.619,978.83,687.37Z" transform="translate(-785.428 -574.848)" fill="#f2f2f2"/>
    <path id="Path_107" data-name="Path 107" d="M953.263,371.22l-.363.073a4.739,4.739,0,0,0,.675.656A3.616,3.616,0,0,1,953.263,371.22Z" transform="translate(-765.073 -326.671)" fill="#f2f2f2"/>
    <path id="Path_108" data-name="Path 108" d="M858.109,650.37l.064,9.473a11.142,11.142,0,0,1-.144,2.29c-.129.632-.365,1.236-.5,1.866a12.688,12.688,0,0,0-.159,2.756v.555l1.219-.013Q858.349,658.835,858.109,650.37Z" transform="translate(-690.077 -545.803)" fill="#f2f2f2"/>
    <path id="Path_109" data-name="Path 109" d="M1032.6,487.811l.325.4-.548-2.131a1.341,1.341,0,0,0-.232-.548,2.383,2.383,0,0,0-.645-.406q-.075-.05-.144-.108a7.791,7.791,0,0,1,.931,1.236A3.766,3.766,0,0,1,1032.6,487.811Z" transform="translate(-826.664 -416.004)" fill="#f2f2f2"/>
    <path id="Path_110" data-name="Path 110" d="M892.571,324.46a5.675,5.675,0,0,1-2.247,4.455,3.31,3.31,0,0,0-.254,1.174,2.348,2.348,0,0,0,.247.931,1.015,1.015,0,0,1,.587-.028,1.5,1.5,0,0,1,.43.234l.579.4a.824.824,0,0,1,.383-.079,1.657,1.657,0,0,1,.7.247l2.984,1.6a1.141,1.141,0,0,1,.52.43.755.755,0,0,1-.019.645c2.023-.146,4.25.454,5.289,2.176a7.147,7.147,0,0,1,.787,3.085c.017.2.032.391.047.589a11.2,11.2,0,0,1,2.488-1.41,1.289,1.289,0,0,1,.987-.159.661.661,0,0,1,.314.262,2.946,2.946,0,0,1,.465-.43,1.073,1.073,0,0,1,.559-.2.25.25,0,0,1,.015-.037,17.736,17.736,0,0,0,.611-2.215,5.67,5.67,0,0,1-1.361-2.737,10.606,10.606,0,0,1-1.75-1.789c-1.606.522-3.352.882-4.792.077a4.144,4.144,0,0,1-1.935-3.627,12.389,12.389,0,0,0,.015-1.647,1.618,1.618,0,0,0-.86-1.318,5.981,5.981,0,0,1-.948-.288,1.5,1.5,0,0,1-.55-1.116c-.187-1.243-.133-2.52-.43-3.739a6.18,6.18,0,0,0-.538-1.393,5.4,5.4,0,0,1-.163.737c-.1.559.142,1.157-.043,1.694a1.318,1.318,0,0,1-.318.5c-.073.542.14,1.114-.039,1.63C894.045,323.89,893.22,324.094,892.571,324.46Z" transform="translate(-715.752 -285.333)" fill="#f2f2f2"/>
    <path id="Path_111" data-name="Path 111" d="M335.726,706.635v5.16H225v-5.16a1.505,1.505,0,0,1,1.505-1.505H334.221A1.505,1.505,0,0,1,335.726,706.635Z" transform="translate(-193.674 -588.79)" fill="#3f3d56"/>
    <path id="Path_112" data-name="Path 112" d="M468.284,330.058a5.579,5.579,0,0,1,1.765,2.988c-1.75.458-3.541-.4-5.177-1.17a65.712,65.712,0,0,0-15.91-5.132,2.39,2.39,0,0,1-1.215-.464,2.069,2.069,0,0,1,.069-2.559c.615-.628,1.752-.538,2.58-.583a23.553,23.553,0,0,1,17.9,6.919Z" transform="translate(-368.206 -288.905)" fill="#192534"/>
    <path id="Path_113" data-name="Path 113" d="M541.724,667.492H497.745a23.772,23.772,0,0,1-1.38-4.154c-.112-.443-.215-.89-.318-1.335-.09-.391-.176-.785-.258-1.176q-.374-1.765-.645-3.545-.26-1.677-.43-3.365-.168-1.615-.26-3.24v-.092a1.887,1.887,0,0,1,.353-1.438,1.855,1.855,0,0,1,1.223-.411c3.655-.249,7.207,1.075,10.853.879a9.94,9.94,0,0,1,2.7-.026,3.5,3.5,0,0,1,.43.11c.215.067.415.138.619.215a27.274,27.274,0,0,0,4.21,1.415,68.22,68.22,0,0,0,7.794.576q.322.019.645.052c.264.021.529.049.791.082a29.645,29.645,0,0,1,6.523,1.634c1.135.411,2.253.875,3.356,1.367.316.142.63.284.944.43.559.26,1.127.535,1.681.834.215.114.43.23.632.353a10.254,10.254,0,0,1,4.059,3.808c.067.12.127.243.185.368s.1.23.148.348C542.373,663.173,542.1,665.323,541.724,667.492Z" transform="translate(-405.188 -544.496)" fill="#202f42"/>
    <path id="Path_114" data-name="Path 114" d="M541.724,667.492H497.745a23.772,23.772,0,0,1-1.38-4.154c-.112-.443-.215-.89-.318-1.335-.09-.391-.176-.785-.258-1.176q-.374-1.765-.645-3.545-.26-1.677-.43-3.365-.168-1.615-.26-3.24v-.092a1.887,1.887,0,0,1,.353-1.438,1.855,1.855,0,0,1,1.223-.411c3.655-.249,7.207,1.075,10.853.879a9.94,9.94,0,0,1,2.7-.026,3.5,3.5,0,0,1,.43.11c.215.067.415.138.619.215a27.274,27.274,0,0,0,4.21,1.415,68.22,68.22,0,0,0,7.794.576q.322.019.645.052c.264.021.529.049.791.082a29.645,29.645,0,0,1,6.523,1.634c1.135.411,2.253.875,3.356,1.367.316.142.63.284.944.43.559.26,1.127.535,1.681.834.215.114.43.23.632.353a10.254,10.254,0,0,1,4.059,3.808c.067.12.127.243.185.368s.1.23.148.348C542.373,663.173,542.1,665.323,541.724,667.492Z" transform="translate(-405.188 -544.496)" opacity="0.1"/>
    <path id="Path_115" data-name="Path 115" d="M340.5,677.823H290.932a5.813,5.813,0,0,1-1.662-4.451,14.143,14.143,0,0,1,.34-2.008c.017-.071.037-.14.056-.215a4.994,4.994,0,0,1,2.2-3.01c1.952-1.253,4.3-1.744,6.45-2.556,1.155-.43,2.268-.974,3.423-1.406a27.551,27.551,0,0,1,5.119-1.307c.193-.032.389-.065.583-.093s.4-.062.6-.09c1.075-.155,2.15-.282,3.236-.406a35.053,35.053,0,0,1,7.147-.342A24.433,24.433,0,0,1,324,663.189c1.359.454,2.7.98,4.033,1.505a32.012,32.012,0,0,1,6.031,2.894c.161.107.318.215.475.329a14.277,14.277,0,0,1,3.208,3.225A15.257,15.257,0,0,1,339.1,673.4,15.636,15.636,0,0,1,340.5,677.823Z" transform="translate(-244.104 -554.826)" fill="#202f42"/>
    <path id="Path_116" data-name="Path 116" d="M426.44,312.372a7.427,7.427,0,0,1-4.038,4.053c-.983.348-2.043.411-3.044.7a3.361,3.361,0,0,0-2.365,1.855,4.339,4.339,0,0,0-.185,1.322c-.153,4.2-.277,8.572,1.4,12.429,1.451,3.328,4.111,5.958,6.738,8.465,3.075,2.933,6.33,5.906,10.374,7.218,2.365.763,5.149.847,7.106-.673a10.332,10.332,0,0,0,1.989-2.3,27.818,27.818,0,0,0,3.414-5.805c1.666-4.3,1.105-9.09.518-13.659a1.114,1.114,0,0,0-.288-.733,1.207,1.207,0,0,0-.86-.148c-2.092.125-4.375-.948-5.076-2.922a7.667,7.667,0,0,1-.277-2.683l.082-5.207a4.418,4.418,0,0,0-.2-1.664,4.1,4.1,0,0,0-2.174-1.877,53.906,53.906,0,0,0-8.875-3.5c-1.337-.393-2.354-1.049-2.95.387C427.1,309.119,427.133,310.852,426.44,312.372Z" transform="translate(-344.178 -276.056)" fill="#fbbebe"/>
    <path id="Path_117" data-name="Path 117" d="M426.44,312.372a7.427,7.427,0,0,1-4.038,4.053c-.983.348-2.043.411-3.044.7a3.361,3.361,0,0,0-2.365,1.855,4.339,4.339,0,0,0-.185,1.322c-.153,4.2-.277,8.572,1.4,12.429,1.451,3.328,4.111,5.958,6.738,8.465,3.075,2.933,6.33,5.906,10.374,7.218,2.365.763,5.149.847,7.106-.673a10.332,10.332,0,0,0,1.989-2.3,27.818,27.818,0,0,0,3.414-5.805c1.666-4.3,1.105-9.09.518-13.659a1.114,1.114,0,0,0-.288-.733,1.207,1.207,0,0,0-.86-.148c-2.092.125-4.375-.948-5.076-2.922a7.667,7.667,0,0,1-.277-2.683l.082-5.207a4.418,4.418,0,0,0-.2-1.664,4.1,4.1,0,0,0-2.174-1.877,53.906,53.906,0,0,0-8.875-3.5c-1.337-.393-2.354-1.049-2.95.387C427.1,309.119,427.133,310.852,426.44,312.372Z" transform="translate(-344.178 -276.056)" opacity="0.1"/>
    <circle id="Ellipse_8" data-name="Ellipse 8" cx="15.91" cy="15.91" r="15.91" transform="translate(80.454 8.725)" fill="#fbbebe"/>
    <path id="Path_118" data-name="Path 118" d="M449.764,386.71l-1.778,4.414a14.04,14.04,0,0,1-1.43,2.885,7.167,7.167,0,0,1-7.884,2.6c-2.651-.875-5-3.356-7.74-2.761a4.892,4.892,0,0,0-3.182,2.756,12.25,12.25,0,0,0-.97,4.225,53.635,53.635,0,0,0,1.881,19.9,3.781,3.781,0,0,0,.944,1.825,3.831,3.831,0,0,0,2.365.679q5.805.346,11.632.409a42.8,42.8,0,0,0,7.14-.35c2.357-.37,4.612-1.075,6.936-1.539,2.174-.43,4.4-.63,6.523-1.256a1.683,1.683,0,0,0,.925-.518,1.544,1.544,0,0,0,.215-.914,10.842,10.842,0,0,0-.8-3.608,60.587,60.587,0,0,1-2.928-9c-.824-4.268-.34-8.665-.43-13.012a14.151,14.151,0,0,0-.673-4.6,5.882,5.882,0,0,0-2.973-3.44C455.077,384.306,450.94,383.816,449.764,386.71Z" transform="translate(-351.888 -337.13)" fill="#16c389"/>
    <path id="Path_119" data-name="Path 119" d="M318.337,358.3c-1.135-.963-1.075-2.681-1.21-4.165a23.925,23.925,0,0,0-2.649-7.9l-3.558-7.559c-1.488-3.152-3.01-6.74-1.782-10.006.411-1.1,1.114-2.081,1.475-3.2a3.006,3.006,0,0,0-.628-3.253c-1.165-.937-2.888-.3-4.205.413a64.372,64.372,0,0,0-6.994,4.4,3.317,3.317,0,0,0-1.44,1.662,12.687,12.687,0,0,1-.23,1.376c-.335.86-1.38,1.118-2.273,1.32a27.751,27.751,0,0,0-17.695,12.986,15.418,15.418,0,0,0-1.505,3.361,22.03,22.03,0,0,0-.645,4.622q-.413,6-.8,11.991a15.674,15.674,0,0,0,.258,5.287c.312,1.1.86,2.122,1.092,3.24.471,2.324-.522,4.7-1.763,6.719s-2.767,3.917-3.545,6.147a14.444,14.444,0,0,0-.7,4.39,25.2,25.2,0,0,0,4,14.212c2.642.389,4.62-2.238,7.048-3.354,3.558-1.632,8.052-.325,11.4-2.341a27.847,27.847,0,0,1,2.389-1.569,8.865,8.865,0,0,1,2.513-.624,38.3,38.3,0,0,1,9.563-.538c4.515.488,9.183,2.494,13.429.875,1.047-.4,2.006-1,3.057-1.393,3.87-1.434,8.17.28,12.292-.036-.645-.034-.933-.765-1.053-1.408q-.406-2.139-.718-4.3a10.153,10.153,0,0,1-.054-3.76,14.581,14.581,0,0,1,1.417-3.195c1.662-3.29,2.365-6.979,3.79-10.38.677-1.621,1.505-3.169,2.309-4.73a97.541,97.541,0,0,0,7.54-20.116c-1.877-3.369-3.578-6.88-5.455-10.247a10.317,10.317,0,0,0-1.935-2.724,10.467,10.467,0,0,0-4.36-2.008,15.109,15.109,0,0,0-4.085-.765c-1.4,0-5.321-1.46-6.263-.443-.972,1.049,1.215,4.438,1.165,5.865a32.674,32.674,0,0,1-.129,4.283c-.344,2.058-1.505,3.891-2.032,5.908a29.034,29.034,0,0,0-.479,2.89,32.828,32.828,0,0,1-1.7,6.358,4.3,4.3,0,0,1-.621,1.208C321.557,359.038,319.919,358.565,318.337,358.3Z" transform="translate(-228.637 -287.834)" fill="#192534"/>
    <path id="Path_120" data-name="Path 120" d="M602.285,590.683a8.865,8.865,0,0,0,1.473,1.239c1.989,1.559,3.158,3.93,4.915,5.747.886.918,1.916,1.686,2.859,2.544a38.779,38.779,0,0,1,5.577,6.917,7.217,7.217,0,0,1,1.075,1.987,4.605,4.605,0,0,1-.615,3.711,8.13,8.13,0,0,1-2.836,2.593,13.714,13.714,0,0,1-1.817.9,1.448,1.448,0,0,1-1.793-2.083,25.032,25.032,0,0,0,1.264-2.3,3.277,3.277,0,0,0,.408-1.423,2.408,2.408,0,0,0-1.505-1.989,8.515,8.515,0,0,0-2.563-.537,28.634,28.634,0,0,1-13.6-5.409c-2.258-1.677-4.433-4.135-4.074-6.923.267-2.081,1.914-3.737,3.722-4.8a13.835,13.835,0,0,1,4.764-1.72c.473-.077,1.66-.4,2.083-.075C602,589.337,601.932,590.253,602.285,590.683Z" transform="translate(-480.997 -497.561)" fill="#fbbebe"/>
    <path id="Path_121" data-name="Path 121" d="M602.285,590.683a8.865,8.865,0,0,0,1.473,1.239c1.989,1.559,3.158,3.93,4.915,5.747.886.918,1.916,1.686,2.859,2.544a38.779,38.779,0,0,1,5.577,6.917,7.217,7.217,0,0,1,1.075,1.987,4.605,4.605,0,0,1-.615,3.711,8.13,8.13,0,0,1-2.836,2.593,13.714,13.714,0,0,1-1.817.9,1.448,1.448,0,0,1-1.793-2.083,25.032,25.032,0,0,0,1.264-2.3,3.277,3.277,0,0,0,.408-1.423,2.408,2.408,0,0,0-1.505-1.989,8.515,8.515,0,0,0-2.563-.537,28.634,28.634,0,0,1-13.6-5.409c-2.258-1.677-4.433-4.135-4.074-6.923.267-2.081,1.914-3.737,3.722-4.8a13.835,13.835,0,0,1,4.764-1.72c.473-.077,1.66-.4,2.083-.075C602,589.337,601.932,590.253,602.285,590.683Z" transform="translate(-480.997 -497.561)" opacity="0.1"/>
    <path id="Path_122" data-name="Path 122" d="M442.159,179.556c-2.15,2.2-5.6,2.294-8.682,2.24l.1-1.206-4.33,1.552a11.632,11.632,0,0,0,2.842-3.04,1.932,1.932,0,0,0-2.107-.138,4.465,4.465,0,0,0-1.576,1.559,14.212,14.212,0,0,0-1.574,12.644,2.784,2.784,0,0,1-2.782-.183,4.956,4.956,0,0,1-1.793-2.262c-.256-.585-.522-1.277-1.133-1.46a1.266,1.266,0,0,0-1.359.613,2.621,2.621,0,0,0-.295,1.548c.08,1.251.993,2.438,1.176,3.677s2.032,2.2,1.075,3.01a14,14,0,0,1-3.455.817,1.521,1.521,0,0,1-1.006-.987c-.963-2.116-.617-4.588-1.187-6.841a17.2,17.2,0,0,0-2.507-4.99,7.313,7.313,0,0,0-.961-1.271,3.237,3.237,0,0,1-.918-1.06c-.163-.443.138-1.075.6-1a19.558,19.558,0,0,0-2.423-1.993q1.277-1.617,2.5-3.275c.28-.378.57-.86.366-1.29a1.34,1.34,0,0,0-.488-.473l-2.223-1.505c-.049-1.021,2.03-.645,2.35-1.61a1.354,1.354,0,0,0-.056-.77l-.757-2.761,2.875,1.3a2.012,2.012,0,0,0,1.1.264c.759-.11,1.124-1.008,1.163-1.776a5,5,0,0,1,.3-2.262q1.952-.077,3.9.028a2.562,2.562,0,0,0-.484-1.845l9.606-.533a13.206,13.206,0,0,1,4.885.342,3.887,3.887,0,0,0,1.617.368c.555-.062,1.114-.574.955-1.107a17.438,17.438,0,0,1,3.911,3.01,3.981,3.981,0,0,0,1.112.918,1.186,1.186,0,0,0,1.346-.163c.262-.286.393-.785.78-.8a.813.813,0,0,1,.583.381,9.481,9.481,0,0,1,1.329,2.307,8.453,8.453,0,0,0,2.01-.529,2.177,2.177,0,0,0-.368,2.436c.32.817.9,1.505,1.29,2.288a9.339,9.339,0,0,1,.772,2.651c.2,1.148.2,2.6-.821,3.158-.886.49-1.984-.032-2.8-.645C444.393,177.217,443.967,177.707,442.159,179.556Z" transform="translate(-338.796 -163.91)" fill="#16c389"/>
    <path id="Path_123" data-name="Path 123" d="M602.873,683.989l14.9-1.344a2.322,2.322,0,0,0,2.111-2.436l-.011-.215a2.32,2.32,0,0,0-1.651-2.1l-2.408-.722a2.345,2.345,0,0,0-.669-.1H609.68a2.41,2.41,0,0,0-.445.043c-1.154.226-6.467,1.271-6.665,1.462-.105.107-.737.58-1.348,1.032a2.32,2.32,0,0,0-.879,2.4l.045.2A2.322,2.322,0,0,0,602.873,683.989Z" transform="translate(-488.268 -566.763)" fill="#464a5f"/>
    <path id="Path_124" data-name="Path 124" d="M578.5,674.733l6.02-1.72,11.18-1.505s7.1-1.935,7.74,4.085l-.6,1.019s.6-3.814-6.708-2.739c0,0-13.143-.441-12.591,4.73C583.54,678.6,578.93,677.743,578.5,674.733Z" transform="translate(-471.17 -562.164)" fill="#16c389"/>
    <ellipse id="Ellipse_9" data-name="Ellipse 9" cx="1.505" cy="0.215" rx="1.505" ry="0.215" transform="translate(113.995 108.486)" fill="#16c389"/>
    <rect id="Rectangle_84" data-name="Rectangle 84" width="1.075" height="1.935" transform="translate(127.862 108.809)" fill="#16c389"/>
    <rect id="Rectangle_85" data-name="Rectangle 85" width="1.075" height="1.935" transform="translate(114.962 108.809)" fill="#16c389"/>
    <ellipse id="Ellipse_10" data-name="Ellipse 10" cx="0.538" cy="1.72" rx="0.538" ry="1.72" transform="translate(126.383 108.256) rotate(-69.04)" fill="#16c389"/>
    <path id="Path_125" data-name="Path 125" d="M376.981,636.407a5.952,5.952,0,0,0,1.52,1.269,6.021,6.021,0,0,0,1.845.488q9.77,1.5,19.471,3.367a28.007,28.007,0,0,1,5.375,1.426c.877.363,1.72.815,2.58,1.2,4.945,2.169,10.535,2.029,15.93,1.849a7.971,7.971,0,0,0,3.1-.518,2.261,2.261,0,0,0,1.428-1.72c.112-1.352-1.426-2.15-2.653-2.733a15.465,15.465,0,0,1-7.028-6.482c-.275-.5-.5-1.18-.112-1.606a1.518,1.518,0,0,1,1.215-.3q2.709.105,5.418-.056c.935-.058,2.174-.5,2.025-1.423a1.714,1.714,0,0,0-.7-.948c-1.628-1.367-3.474-2.776-5.6-2.735a10.747,10.747,0,0,0-3.225.806c-5.629,1.909-11.69,2.015-17.63,1.976a21.24,21.24,0,0,1-4.341-.325,22.7,22.7,0,0,1-3.425-1.1,72.421,72.421,0,0,1-10.559-4.685c-1.327-.765-2.806-1.651-4.285-1.258a4.46,4.46,0,0,0-1.763,1.075c-1.761,1.591-3.247,3.539-2.746,5.981C373.33,632.511,375.231,634.579,376.981,636.407Z" transform="translate(-309.635 -524.154)" fill="#fbbebe"/>
    <path id="Path_126" data-name="Path 126" d="M320.793,447.465a24.283,24.283,0,0,0,1.834,5.315c1.013,1.72,2.7,3.053,3.283,4.96a14.341,14.341,0,0,1,.215,4.212,8.289,8.289,0,0,0,1.191,4.6c.447.675,1.03,1.247,1.539,1.877,2.26,2.8,2.956,6.528,3.238,10.105-2.15-1.217-4.666-2.472-6.994-1.636a7.646,7.646,0,0,0-2.477,1.671,31.775,31.775,0,0,0-3.919,4.3,3.406,3.406,0,0,0-.952,2.782A44.979,44.979,0,0,1,314.2,479.9c-.7-1.453-1.245-2.989-2.086-4.369a52.145,52.145,0,0,0-3.8-4.76,27.825,27.825,0,0,1-5.164-12.537,78.715,78.715,0,0,1-.776-13.659,10.5,10.5,0,0,1,.667-4.44,10.611,10.611,0,0,1,1.52-2.214,9.765,9.765,0,0,1,2.449-2.365c3.126-1.84,6.48,1.211,8.57,3.3A21.007,21.007,0,0,1,320.793,447.465Z" transform="translate(-254.407 -376.733)" fill="#192534"/>
    <path id="Path_127" data-name="Path 127" d="M586.789,431.968a2.941,2.941,0,0,1,.688.94,3.148,3.148,0,0,1,.086,1.361,28.243,28.243,0,0,0,.574,8.14c.35,1.615.793,3.483-.237,4.775a3.972,3.972,0,0,0-.43.548c-.477.894.4,1.868,1.075,2.636a7.782,7.782,0,0,1,.785,8.763,7.459,7.459,0,0,0-.832,1.567,4.96,4.96,0,0,0-.133,1.428l.009,3.6c-2.26-.3-4.786-.54-6.6.839-1.533,1.161-2.139,3.182-3.44,4.588-1.262,1.354-3.225,2.227-3.717,4.012l.026-7.433a17.152,17.152,0,0,0-.159-2.954c-.258-1.537-.927-2.976-1.318-4.485a25.654,25.654,0,0,1-.574-6.076,45.3,45.3,0,0,1,.6-10.071c.286-1.342.692-2.655,1.006-3.99.57-2.408.86-4.915,1.86-7.177s2.963-4.313,5.427-4.556C584.078,428.16,585.179,430.285,586.789,431.968Z" transform="translate(-466.51 -371.557)" fill="#192534"/>
    <ellipse id="Ellipse_11" data-name="Ellipse 11" cx="1.505" cy="2.795" rx="1.505" ry="2.795" transform="translate(125.806 104.56) rotate(-30)" fill="#fbbebe"/>
    <ellipse id="Ellipse_12" data-name="Ellipse 12" cx="1.505" cy="2.795" rx="1.505" ry="2.795" transform="translate(125.806 104.56) rotate(-30)" opacity="0.1"/>
  </g>
</svg>
