<svg xmlns="http://www.w3.org/2000/svg" width="536" height="294.558" viewBox="0 0 536 294.558">
  <g id="game" transform="translate(-0.011 0.03)">
    <path id="Path_73" data-name="Path 73" d="M435.829,517.98a18.651,18.651,0,0,1,2.229-2.96,4.272,4.272,0,0,1-.345.257,5.7,5.7,0,0,0-1.544.973,3.212,3.212,0,0,0-.556,1.313l-1.313,5.1c.257-.324.515-.643.777-.963A9.012,9.012,0,0,1,435.829,517.98Z" transform="translate(-251.583 -334.305)" fill="#f2f2f2"/>
    <path id="Path_74" data-name="Path 74" d="M674.819,521.321a5.781,5.781,0,0,1-.515,1.663,23.206,23.206,0,0,1-.87,6.4,19.679,19.679,0,0,0-.54,2.672c-1.215,8.308-2.388,16.986-.314,25.037a3.048,3.048,0,0,1,.788-1.287,13.242,13.242,0,0,0,2.316-6.007c2.136-11.226,1.544-22.679,1.029-34.148a3.788,3.788,0,0,0-1.122-.844,10.358,10.358,0,0,1-.036,1.5,49.818,49.818,0,0,1-.736,5.013Z" transform="translate(-366.66 -334.203)" fill="#f2f2f2"/>
    <path id="Path_75" data-name="Path 75" d="M534.666,516.462a5.26,5.26,0,0,0-.4-1.956,6.085,6.085,0,0,0-1-1.38l-1.112-1.266c-.566,13.445-1.771,26.926.731,40.093a13.242,13.242,0,0,0,2.316,6.007,3.048,3.048,0,0,1,.788,1.287c2.059-8.03.9-16.729-.314-25.037a19.663,19.663,0,0,0-.54-2.672,25.52,25.52,0,0,1-.628-10.341A24.2,24.2,0,0,0,534.666,516.462Z" transform="translate(-298.684 -332.772)" fill="#f2f2f2"/>
    <path id="Path_76" data-name="Path 76" d="M550.16,462.953a35.247,35.247,0,0,1,3.248,8.128l.355,1.2c-.17-4.066-.252-8.138-.283-12.21q-1.2,1.071-2.424,2.116Z" transform="translate(-307.806 -307.64)" fill="#f2f2f2"/>
    <path id="Path_77" data-name="Path 77" d="M560.177,677.269a27.521,27.521,0,0,0-.654-8.5,25.225,25.225,0,0,1-1.215-5.307,16.267,16.267,0,0,1,.443-3.6c2.116-10.763,3.027-22.077-.175-32.567-.86-2.81-2-5.528-2.872-8.328A20.249,20.249,0,0,1,554.252,622a3.145,3.145,0,0,0-1.755-2.059,10.374,10.374,0,0,1-.036,1.5,49.806,49.806,0,0,1-.716,5.014,5.081,5.081,0,0,1-.633,1.879,4.232,4.232,0,0,1-1.657,1.369c.3.68.6,1.354.891,2.059l-2.146.607c1.41,3.088.237,6.614-.515,9.893-2.692,11.422-.268,23.621-1.544,35.172Z" transform="translate(-305.855 -384.743)" fill="#f2f2f2"/>
    <path id="Path_78" data-name="Path 78" d="M556.829,411.98a18.647,18.647,0,0,1,2.229-2.96,4.266,4.266,0,0,1-.345.257,5.7,5.7,0,0,0-1.544.973,3.211,3.211,0,0,0-.556,1.313l-1.313,5.1c.257-.324.515-.643.777-.963A9.012,9.012,0,0,1,556.829,411.98Z" transform="translate(-310.3 -282.867)" fill="#f2f2f2"/>
    <path id="Path_79" data-name="Path 79" d="M655.669,410.462a5.261,5.261,0,0,0-.4-1.956,6.083,6.083,0,0,0-1-1.379l-1.112-1.266c-.556,13.244-1.73,26.519.628,39.5.417-1.405.839-2.805,1.256-4.205a42.763,42.763,0,0,1,2.476-6.738c-.242-2.059-.54-4.154-.839-6.2a19.652,19.652,0,0,0-.541-2.671,25.522,25.522,0,0,1-.628-10.341,24.2,24.2,0,0,0,.16-4.736Z" transform="translate(-357.404 -281.334)" fill="#f2f2f2"/>
    <path id="Path_80" data-name="Path 80" d="M613.51,611.37l-1.76,62,4.633-.051a193.578,193.578,0,0,1-1.112-22.721,31.723,31.723,0,0,0-.381-6.6c-.324-1.508-.89-2.955-1.2-4.468a26.728,26.728,0,0,1-.345-5.482Z" transform="translate(-337.693 -381.06)" fill="#f2f2f2"/>
    <path id="Path_81" data-name="Path 81" d="M537.379,609.164c.072-.175.144-.34.211-.515.242-.628.458-1.261.659-1.9l-.041.072c-.407.669-.849,1.313-1.307,1.946C537.065,608.891,537.224,609.025,537.379,609.164Z" transform="translate(-301.371 -378.818)" fill="#f2f2f2"/>
    <path id="Path_82" data-name="Path 82" d="M262.666,472.462a5.261,5.261,0,0,0-.4-1.956,6.083,6.083,0,0,0-1-1.379l-1.112-1.266c-.566,13.445-1.771,26.926.731,40.093a13.242,13.242,0,0,0,2.316,6.007,3.047,3.047,0,0,1,.788,1.287c2.059-8.03.9-16.729-.314-25.037a19.657,19.657,0,0,0-.515-2.671,25.521,25.521,0,0,1-.654-10.341,24.2,24.2,0,0,0,.16-4.736Z" transform="translate(-166.692 -311.42)" fill="#f2f2f2"/>
    <path id="Path_83" data-name="Path 83" d="M265.379,565.164c.072-.175.144-.34.211-.515.242-.628.458-1.261.659-1.9l-.041.072c-.407.669-.849,1.313-1.307,1.946C265.065,564.891,265.224,565.025,265.379,565.164Z" transform="translate(-169.38 -357.467)" fill="#f2f2f2"/>
    <path id="Path_84" data-name="Path 84" d="M221.306,673.37q-.453,16.137-.916,32.274l2.208-.026c-.329-1.369-.818-2.7-1.1-4.087a26.727,26.727,0,0,1-.345-5.482Z" transform="translate(-147.781 -411.146)" fill="#f2f2f2"/>
    <path id="Path_85" data-name="Path 85" d="M275.87,718.382a4.231,4.231,0,0,1-1.657-1.369,5.08,5.08,0,0,1-.633-1.879,49.785,49.785,0,0,1-.716-5.014,10.36,10.36,0,0,1-.036-1.5,3.145,3.145,0,0,0-1.755,2.059,24,24,0,0,1-2.893-8.622c-.154.515-.314,1.081-.515,1.621-1.071,3.186-2.625,6.269-2.934,9.615a19.046,19.046,0,0,0,.515,6.007l10.223-.108Z" transform="translate(-169.273 -425.069)" fill="#f2f2f2"/>
    <path id="Path_86" data-name="Path 86" d="M299.48,700.75c.2.638.417,1.271.659,1.9.067.175.139.34.211.515.154-.139.314-.273.479-.4-.458-.633-.9-1.277-1.307-1.946Z" transform="translate(-186.16 -424.433)" fill="#f2f2f2"/>
    <path id="Path_87" data-name="Path 87" d="M422.379,690.847a63.782,63.782,0,0,1-1.477-9.322l-2.45-22.648c-.026-.2-.046-.4-.067-.6-.031.1-.057.2-.087.293a16.292,16.292,0,0,1-3.088,4.875c-1.23,1.5-2.769,3.052-4.576,2.615a4.925,4.925,0,0,1-1.961-1.215l-4.118-3.557q-1.22-1.029-2.424-2.116c-.036,4.967-.149,9.934-.407,14.891a10.865,10.865,0,0,1-.952,4.581,52.434,52.434,0,0,1,2.5,14.588c.036,1.343,0,2.682-.041,4.025l12.065-.129h.072l9.075-.1A62.276,62.276,0,0,1,422.379,690.847Z" transform="translate(-235.312 -403.824)" fill="#f2f2f2"/>
    <path id="Path_88" data-name="Path 88" d="M400.34,615.721l.777.963L399.8,611.6a3.212,3.212,0,0,0-.556-1.313,5.7,5.7,0,0,0-1.544-.973,4.276,4.276,0,0,1-.345-.257,18.649,18.649,0,0,1,2.229,2.96A9.013,9.013,0,0,1,400.34,615.721Z" transform="translate(-233.658 -379.939)" fill="#f2f2f2"/>
    <path id="Path_89" data-name="Path 89" d="M431.572,572.247c.324,3.572.515,7.16.695,10.748s.365,7.083.546,10.624a52.314,52.314,0,0,1,1.9-8.076,10.784,10.784,0,0,1-.952-4.581c-.257-4.957-.371-9.924-.407-14.891-.788.705-1.585,1.395-2.388,2.059A28.907,28.907,0,0,1,431.572,572.247Z" transform="translate(-249.967 -359.078)" fill="#f2f2f2"/>
    <path id="Path_90" data-name="Path 90" d="M297.923,628.25c-1.215,8.308-2.388,16.986-.314,25.037A3.047,3.047,0,0,1,298.4,652a13.242,13.242,0,0,0,2.316-6.007c2.5-13.167,1.3-26.648.731-40.093l-1.1,1.266a6.084,6.084,0,0,0-1.029,1.359,5.26,5.26,0,0,0-.417,1.935,24.192,24.192,0,0,0,.16,4.725,25.521,25.521,0,0,1-.613,10.372A19.65,19.65,0,0,0,297.923,628.25Z" transform="translate(-184.701 -378.406)" fill="#f2f2f2"/>
    <path id="Path_91" data-name="Path 91" d="M659.348,689.761l4.036-.046c-2.152-12.39.952-25.7-1.971-38.091a38.641,38.641,0,0,1-1.174-5.914c-1.029,2.738-2.208,5.436-2.476,8.328-.468,5.013,1.889,9.811,2.764,14.763,1.2,6.831-.427,13.795-1.153,20.692C659.363,689.612,659.358,689.674,659.348,689.761Z" transform="translate(-359.992 -397.724)" fill="#f2f2f2"/>
    <path id="Path_92" data-name="Path 92" d="M916.508,665.341c-4.674-13.929,0-29.458-3.382-43.753-.777-3.279-1.951-6.831-.515-9.893l-2.146-.654c.293-.679.592-1.354.89-2.059a5.325,5.325,0,0,1-1.153-.793l-1.575,14.521a63.78,63.78,0,0,1-1.477,9.322c-.89,3.428-2.337,6.692-3.372,10.063-2.764,9.044-2.46,18.7-.973,28.084l15.442-.17C917.682,668.466,917.038,666.916,916.508,665.341Z" transform="translate(-478.389 -379.517)" fill="#f2f2f2"/>
    <path id="Path_93" data-name="Path 93" d="M914.97,449.935l.041-.144.185-.6a6.644,6.644,0,0,0-1.452-.911,4.273,4.273,0,0,1-.345-.257C913.91,448.669,914.481,449.276,914.97,449.935Z" transform="translate(-484.073 -301.792)" fill="#f2f2f2"/>
    <path id="Path_94" data-name="Path 94" d="M815.48,539.75c.2.638.417,1.271.659,1.9.067.175.139.34.211.515.154-.139.314-.273.479-.4-.458-.633-.9-1.277-1.307-1.946Z" transform="translate(-436.556 -346.306)" fill="#f2f2f2"/>
    <path id="Path_95" data-name="Path 95" d="M934.713,536.051c1.58-8.3,1.683-16.719,1.4-25.181a3.289,3.289,0,0,1-2.816.813l-.088-.026a21.864,21.864,0,0,1-.746,3.979,19.653,19.653,0,0,0-.54,2.672c-1.215,8.308-2.388,16.986-.314,25.037a3.048,3.048,0,0,1,.788-1.287A13.243,13.243,0,0,0,934.713,536.051Z" transform="translate(-492.358 -332.291)" fill="#f2f2f2"/>
    <path id="Path_96" data-name="Path 96" d="M493.9,725.467q0-4.046.051-8.1-.118,4.056-.227,8.1Z" transform="translate(-280.422 -432.498)" fill="#f2f2f2"/>
    <path id="Path_97" data-name="Path 97" d="M613.591,242.454q-.515-2.913-1.22-5.719c-4.993-20.188-16.683-36.3-38.091-45.019q-2.754-1.117-5.724-2.059a97.331,97.331,0,0,0-13.774-3.294c-44.906-7.51-82.667-3.938-116.706,2.836-1.92.376-3.824.772-5.724,1.174-47.716,10.084-88.35,25.706-131.706,24.342-1.9-.057-3.809-.149-5.719-.273-18.9-1.256-38.4-5.883-59.282-15.725-24.682-11.628-49.78-7.721-72.424,6.125-12.781,7.8-24.779,18.778-35.481,31.914l-.036.041q-2.265,2.78-4.447,5.662C88.436,288.723,69.1,357.9,84.961,411.514q.854,2.9,1.853,5.724a103.667,103.667,0,0,0,20.744,35.45,44.468,44.468,0,0,0,20.121,12.74c1.328.407,2.682.746,4.051,1.029a54.518,54.518,0,0,0-1.961-19.231c-1.029-3.382-2.481-6.635-3.372-10.063a63.784,63.784,0,0,1-1.477-9.322l-2.45-22.648a100.847,100.847,0,0,1-.891-14.027,52.432,52.432,0,0,1,2.5-14.588,10.783,10.783,0,0,1-.952-4.581c-.257-4.957-.371-9.924-.407-14.891q-1.2,1.071-2.424,2.116l-4.144,3.557a4.926,4.926,0,0,1-1.961,1.215c-1.807.438-3.408-1.168-4.576-2.615a17.154,17.154,0,0,1-3.088-4.875,15.262,15.262,0,0,1-.561-5.23c.041-2.26.154-4.514.273-6.769l.988-18.814c.185-3.6.371-7.175.695-10.748.232-2.574.561-5.194,1.884-7.387,2.486-4.118,7.819-5.559,12.663-5.209a1.807,1.807,0,0,1-.046-1.544,2.733,2.733,0,0,1,1.246-1.03l7.145-3.824a3.963,3.963,0,0,1,1.678-.592,1.977,1.977,0,0,1,.916.19l1.385-.968a3.6,3.6,0,0,1,1.029-.561,2.43,2.43,0,0,1,1.405.067,5.626,5.626,0,0,0,.592-2.229,7.933,7.933,0,0,0-.607-2.81,13.584,13.584,0,0,1-5.384-10.712c-1.544-.865-3.531-1.354-4.159-3.176-.427-1.235.082-2.6-.093-3.9a3.155,3.155,0,0,1-.762-1.2c-.443-1.287.134-2.718-.1-4.056a5.923,5.923,0,0,1-.365-2.188,3.2,3.2,0,0,1,.813-1.369l5.06-6a13.223,13.223,0,0,1,3.8-3.459c3.675-1.884,8.076,0,12.2,0a12.779,12.779,0,0,1,4.118.232,8.6,8.6,0,0,1,2.543,1.616l5.662,4.633c1.9,1.544,3.958,3.387,4.144,5.837a5.436,5.436,0,0,1-.319,2.182,5.662,5.662,0,0,1,1.168,2.919,7.756,7.756,0,0,1-1.642,4.736,25.068,25.068,0,0,1-5.147,5.585,13.574,13.574,0,0,1-3.258,6.553,42.5,42.5,0,0,0,1.462,5.3.631.631,0,0,1,.036.088,2.574,2.574,0,0,1,1.338.468,7.031,7.031,0,0,1,1.112,1.029,1.585,1.585,0,0,1,.752-.628,3.089,3.089,0,0,1,2.363.381,24.245,24.245,0,0,1,6.429,3.773,8.158,8.158,0,0,1,1.678,2.131,10.568,10.568,0,0,1,7.423,1.673c3.891,2.666,5.492,7.536,6.846,12.055l3.032,10.135c1.328,4.442,2.666,8.926,2.975,13.548a61.943,61.943,0,0,1-.87,12.6c-.8,5.775,1.081,12.117,1.107,17.949,0,1.5,0,3.011-.036,4.53a10.563,10.563,0,0,1,7.026-1.488,8.159,8.159,0,0,1,1.678-2.131,24.525,24.525,0,0,1,6.429-3.773,3.088,3.088,0,0,1,2.363-.381,1.585,1.585,0,0,1,.751.628,7.032,7.032,0,0,1,1.112-1.029,2.574,2.574,0,0,1,1.338-.468.623.623,0,0,1,.036-.087,42.508,42.508,0,0,0,1.462-5.3,13.574,13.574,0,0,1-3.258-6.553,25.069,25.069,0,0,1-5.147-5.585,7.757,7.757,0,0,1-1.642-4.736,5.662,5.662,0,0,1,1.168-2.919,5.436,5.436,0,0,1-.319-2.182c.185-2.45,2.239-4.283,4.144-5.837l5.662-4.633a8.6,8.6,0,0,1,2.543-1.616,12.8,12.8,0,0,1,4.118-.232c4.118,0,8.529-1.874,12.2,0a13.091,13.091,0,0,1,3.8,3.459l5.06,6a3.2,3.2,0,0,1,.813,1.369,6.031,6.031,0,0,1-.365,2.188c-.237,1.338.34,2.769-.1,4.056a3.155,3.155,0,0,1-.762,1.2c-.175,1.3.335,2.666-.093,3.9-.628,1.822-2.6,2.311-4.159,3.176A13.584,13.584,0,0,1,231.625,360a7.931,7.931,0,0,0-.607,2.81,5.626,5.626,0,0,0,.592,2.229,2.43,2.43,0,0,1,1.405-.067,3.6,3.6,0,0,1,1.029.561l1.385.968a1.977,1.977,0,0,1,.916-.19,3.963,3.963,0,0,1,1.678.592l7.145,3.824a4.791,4.791,0,0,1,.875.582c.057-1.385.118-2.774.19-4.159l1-18.808c.185-3.6.371-7.175.695-10.748.232-2.574.561-5.194,1.884-7.386,2.486-4.118,7.819-5.559,12.663-5.209a1.807,1.807,0,0,1-.046-1.544,2.733,2.733,0,0,1,1.246-1.03l7.145-3.824a3.963,3.963,0,0,1,1.678-.592,1.977,1.977,0,0,1,.916.19l1.385-.968a3.6,3.6,0,0,1,1.03-.561,2.43,2.43,0,0,1,1.405.067,5.626,5.626,0,0,0,.592-2.229,7.933,7.933,0,0,0-.607-2.81,13.584,13.584,0,0,1-5.384-10.712c-1.544-.865-3.531-1.354-4.159-3.176-.427-1.235.082-2.6-.093-3.9a3.156,3.156,0,0,1-.762-1.2c-.443-1.287.134-2.718-.1-4.056a12.944,12.944,0,0,1-.391-1.766,14.816,14.816,0,0,0-1.287,3.336c-.726,2.919-.6,5.976-1.03,8.951a3.605,3.605,0,0,1-1.318,2.671,14.653,14.653,0,0,1-2.27.69,3.868,3.868,0,0,0-2.059,3.155,30.568,30.568,0,0,0,.036,3.943,9.944,9.944,0,0,1-4.658,8.684c-3.958,2.213-8.874.746-13.152-.757a11.607,11.607,0,0,0,4.911-3.408l-4.7-.952a30.483,30.483,0,0,0,7.5-4.978,6.46,6.46,0,0,0,1.915-2.512c.515-1.446.036-3.088.515-4.535.8-2.476,3.83-3.413,5.374-5.5,1.354-1.822,1.4-4.267,1.395-6.532l-.026-8.637c0-2.486.16-5.353,2.141-6.861,2.208-1.683,5.338-.726,8.117-.741,2.929,0,5.719-1.22,8.632-1.544,2.749-.314,7.335,1.611,7.258,3.794a32.307,32.307,0,0,0,4.633.479,12.778,12.778,0,0,1,4.118.232,8.6,8.6,0,0,1,2.543,1.616l5.662,4.633c1.9,1.544,3.958,3.387,4.118,5.837a5.436,5.436,0,0,1-.319,2.182,5.662,5.662,0,0,1,1.168,2.919,7.756,7.756,0,0,1-1.642,4.736,25.067,25.067,0,0,1-5.147,5.585,13.573,13.573,0,0,1-3.258,6.553,42.49,42.49,0,0,0,1.462,5.3.624.624,0,0,1,.036.088,2.574,2.574,0,0,1,1.338.468,7.03,7.03,0,0,1,1.112,1.029,1.585,1.585,0,0,1,.751-.628,3.089,3.089,0,0,1,2.363.381,28.539,28.539,0,0,1,5.662,3.14v-.314c.041-2.26.154-4.514.273-6.769l1.029-18.839c.185-3.6.371-7.175.695-10.748.232-2.574.561-5.194,1.884-7.386,2.486-4.118,7.819-5.559,12.663-5.209a1.807,1.807,0,0,1-.046-1.544,2.733,2.733,0,0,1,1.246-1.029l7.145-3.824a3.963,3.963,0,0,1,1.678-.592,1.977,1.977,0,0,1,.916.19l1.385-.968a3.6,3.6,0,0,1,1.029-.561,2.43,2.43,0,0,1,1.405.067,5.626,5.626,0,0,0,.592-2.229,7.932,7.932,0,0,0-.607-2.81,13.584,13.584,0,0,1-5.384-10.712c-1.544-.865-3.531-1.354-4.159-3.176-.427-1.235.082-2.6-.093-3.9a3.155,3.155,0,0,1-.762-1.2c-.443-1.287.134-2.718-.1-4.056a5.923,5.923,0,0,1-.365-2.188,3.2,3.2,0,0,1,.813-1.369l5.06-6a13.223,13.223,0,0,1,3.8-3.459c3.675-1.884,8.076,0,12.2,0a12.779,12.779,0,0,1,4.118.232,8.6,8.6,0,0,1,2.543,1.616l5.662,4.633c1.9,1.544,3.958,3.387,4.118,5.837a5.436,5.436,0,0,1-.319,2.182,5.662,5.662,0,0,1,1.168,2.919,7.756,7.756,0,0,1-1.642,4.736,25.067,25.067,0,0,1-5.147,5.585,13.574,13.574,0,0,1-3.258,6.553,42.487,42.487,0,0,0,1.462,5.3.629.629,0,0,1,.036.087,2.574,2.574,0,0,1,1.338.468,7.035,7.035,0,0,1,1.112,1.029,1.585,1.585,0,0,1,.752-.628,3.088,3.088,0,0,1,2.363.381,24.244,24.244,0,0,1,6.429,3.773,8.158,8.158,0,0,1,1.678,2.131,10.567,10.567,0,0,1,7.448,1.673c3.891,2.666,5.492,7.536,6.846,12.055l3.032,10.135c1.328,4.442,2.666,8.926,2.975,13.548a58.338,58.338,0,0,1-.762,11.777c.129-.134.257-.268.4-.4a24.524,24.524,0,0,1,6.429-3.773,3.088,3.088,0,0,1,2.363-.381,1.585,1.585,0,0,1,.751.628,7.033,7.033,0,0,1,1.112-1.03,2.574,2.574,0,0,1,1.338-.468.621.621,0,0,1,.036-.088,42.51,42.51,0,0,0,1.462-5.3,13.574,13.574,0,0,1-3.258-6.553,25.068,25.068,0,0,1-5.147-5.585,7.756,7.756,0,0,1-1.642-4.736,5.662,5.662,0,0,1,1.169-2.919,5.436,5.436,0,0,1-.319-2.182c.185-2.45,2.239-4.283,4.118-5.837l5.662-4.633a8.6,8.6,0,0,1,2.543-1.616,12.8,12.8,0,0,1,4.118-.232,32.308,32.308,0,0,0,4.633-.479c-.077-2.182,4.509-4.118,7.258-3.794,2.908.335,5.7,1.544,8.632,1.544,2.78,0,5.909-.942,8.117.741,1.982,1.508,2.146,4.375,2.141,6.861l.021,8.668c0,2.265.041,4.71,1.395,6.532,1.472,1.987,4.288,2.939,5.24,5.147,1.163-2.991,2.738-5.765,5.343-7.546a10.567,10.567,0,0,1,7.386-1.709,8.159,8.159,0,0,1,1.678-2.131,24.526,24.526,0,0,1,6.429-3.773,3.088,3.088,0,0,1,2.363-.381,1.585,1.585,0,0,1,.752.628,7.031,7.031,0,0,1,1.112-1.029,2.574,2.574,0,0,1,1.338-.468.621.621,0,0,1,.036-.087,42.5,42.5,0,0,0,1.462-5.3,13.574,13.574,0,0,1-3.258-6.553,25.068,25.068,0,0,1-5.147-5.585,7.756,7.756,0,0,1-1.642-4.736,5.663,5.663,0,0,1,1.168-2.919,5.436,5.436,0,0,1-.319-2.182c.185-2.45,2.239-4.283,4.118-5.837l5.662-4.633a8.6,8.6,0,0,1,2.543-1.616,12.8,12.8,0,0,1,4.118-.232,32.311,32.311,0,0,0,4.633-.479c-.077-2.182,4.509-4.118,7.258-3.794,2.908.335,5.7,1.544,8.632,1.544,2.78,0,5.909-.942,8.117.741,1.982,1.508,2.146,4.375,2.141,6.861l.021,8.653c0,2.265.041,4.71,1.395,6.532,1.544,2.09,4.576,3.027,5.374,5.5.463,1.452,0,3.088.515,4.535a6.46,6.46,0,0,0,1.915,2.512,30.32,30.32,0,0,0,3.68,2.841,6.176,6.176,0,0,1,.973-1.9,5.436,5.436,0,0,1-.319-2.182c.185-2.45,2.239-4.283,4.118-5.837l5.662-4.633a8.6,8.6,0,0,1,2.543-1.616,12.8,12.8,0,0,1,4.118-.232c4.118,0,8.529-1.874,12.2,0a13.092,13.092,0,0,1,3.8,3.459l5.06,6a3.2,3.2,0,0,1,.813,1.369,6.031,6.031,0,0,1-.365,2.188c-.237,1.338.34,2.769-.1,4.056a3.156,3.156,0,0,1-.762,1.2c-.175,1.3.335,2.666-.093,3.9-.628,1.822-2.6,2.311-4.159,3.176a13.584,13.584,0,0,1-5.379,10.665,7.933,7.933,0,0,0-.607,2.81,5.627,5.627,0,0,0,.592,2.229,2.43,2.43,0,0,1,1.405-.067,3.606,3.606,0,0,1,1.03.561l1.385.968a1.977,1.977,0,0,1,.916-.19,3.963,3.963,0,0,1,1.678.592l7.145,3.824a2.734,2.734,0,0,1,1.246,1.029,1.807,1.807,0,0,1-.046,1.544c4.844-.35,10.176,1.086,12.663,5.209,1.323,2.193,1.652,4.833,1.884,7.386.324,3.572.515,7.16.695,10.748l.973,18.86c.118,2.255.232,4.509.273,6.769a15.262,15.262,0,0,1-.561,5.23,16.3,16.3,0,0,1-3.089,4.875c-1.23,1.5-2.769,3.052-4.576,2.615a4.926,4.926,0,0,1-1.961-1.215l-4.144-3.557q-1.22-1.029-2.424-2.116c-.036,4.967-.149,9.934-.407,14.891a10.865,10.865,0,0,1-.952,4.581,52.43,52.43,0,0,1,2.5,14.588,92.252,92.252,0,0,1-.679,12.091q.649-1.374,1.3-2.78C596.579,359.891,622.373,291.009,613.591,242.454Z" transform="translate(-79.34 -172.783)" fill="#d8d7d7"/>
    <path id="Path_98" data-name="Path 98" d="M163.653,473.6l-1.313,5.1c.257-.324.515-.643.777-.963a9.013,9.013,0,0,1,.731-3.722,18.65,18.65,0,0,1,2.229-2.96,4.289,4.289,0,0,1-.345.257,5.7,5.7,0,0,0-1.544.973,3.213,3.213,0,0,0-.535,1.313Z" transform="translate(-119.611 -312.973)" fill="#f2f2f2"/>
    <path id="Path_99" data-name="Path 99" d="M775.34,514.721l.777.963L774.8,510.6a3.211,3.211,0,0,0-.556-1.313,5.7,5.7,0,0,0-1.544-.973,4.3,4.3,0,0,1-.345-.257,18.645,18.645,0,0,1,2.229,2.96,9.011,9.011,0,0,1,.751,3.7Z" transform="translate(-415.631 -330.928)" fill="#f2f2f2"/>
    <path id="Path_100" data-name="Path 100" d="M934.35,579.164c.154-.139.314-.273.479-.4-.458-.633-.9-1.277-1.307-1.946l-.041-.072c.2.638.417,1.271.659,1.9A5.4,5.4,0,0,0,934.35,579.164Z" transform="translate(-493.817 -364.26)" fill="#f2f2f2"/>
    <path id="Path_101" data-name="Path 101" d="M674.48,599.75c.2.638.417,1.271.659,1.9.067.175.139.34.211.515.154-.139.314-.273.479-.4-.458-.633-.9-1.277-1.307-1.946Z" transform="translate(-368.134 -375.421)" fill="#f2f2f2"/>
    <path id="Path_102" data-name="Path 102" d="M755.056,392.68a13.584,13.584,0,0,1-5.379,10.665,7.93,7.93,0,0,0-.607,2.81,5.625,5.625,0,0,0,.592,2.229,2.429,2.429,0,0,1,1.405-.067,3.6,3.6,0,0,1,1.03.561l1.385.968a1.977,1.977,0,0,1,.916-.19,3.963,3.963,0,0,1,1.678.592l7.145,3.824a2.734,2.734,0,0,1,1.246,1.03,1.806,1.806,0,0,1-.046,1.544,18.783,18.783,0,0,1,4.586.226,76.577,76.577,0,0,1,2.136-8.514,10.6,10.6,0,0,1-2.625-7.062,29.664,29.664,0,0,0,.036-3.943,3.876,3.876,0,0,0-2.059-3.155,14.316,14.316,0,0,1-2.27-.69,3.588,3.588,0,0,1-1.318-2.672c-.448-2.975-.319-6.033-1.029-8.951a14.812,14.812,0,0,0-1.287-3.335,12.95,12.95,0,0,1-.391,1.766c-.237,1.338.34,2.769-.1,4.056a3.156,3.156,0,0,1-.762,1.2c-.175,1.3.335,2.666-.093,3.9C758.587,391.315,756.611,391.8,755.056,392.68Z" transform="translate(-404.329 -268.081)" fill="#f2f2f2"/>
    <path id="Path_103" data-name="Path 103" d="M813.923,467.25c-1.215,8.308-2.388,16.986-.314,25.037A3.048,3.048,0,0,1,814.4,491a13.243,13.243,0,0,0,2.316-6.007c2.5-13.167,1.3-26.648.731-40.093l-1.1,1.266a6.082,6.082,0,0,0-1.029,1.359,5.262,5.262,0,0,0-.417,1.935,24.2,24.2,0,0,0,.16,4.725,25.522,25.522,0,0,1-.613,10.372,19.648,19.648,0,0,0-.525,2.692Z" transform="translate(-435.097 -300.279)" fill="#f2f2f2"/>
    <path id="Path_104" data-name="Path 104" d="M783.561,565.283a3.191,3.191,0,0,1-2.63.674,4.926,4.926,0,0,1-1.961-1.215l-4.118-3.557q-1.22-1.029-2.424-2.116c-.036,4.967-.149,9.934-.407,14.891a10.865,10.865,0,0,1-.952,4.581,52.431,52.431,0,0,1,2.5,14.588,104.127,104.127,0,0,1-.891,14.027q-1.22,11.324-2.45,22.648a63.773,63.773,0,0,1-1.477,9.322c-.71,2.733-1.776,5.358-2.7,8.03l5.255-.057,6.692-.072h.824l11.324-.124a.077.077,0,0,0,0-.036c.875-4.952,3.233-9.749,2.764-14.763-.309-3.346-1.863-6.429-2.934-9.615-4.674-13.929,0-29.458-3.382-43.753-.777-3.279-1.951-6.831-.515-9.893l-2.146-.654c.293-.679.592-1.354.891-2.059a5.282,5.282,0,0,1-1.261-.849Z" transform="translate(-412.569 -355.681)" fill="#f2f2f2"/>
    <path id="Path_105" data-name="Path 105" d="M719.83,710.37q.031,5.219.067,10.439h.227Z" transform="translate(-390.14 -429.101)" fill="#f2f2f2"/>
    <path id="Path_106" data-name="Path 106" d="M978.83,687.37q.051,7.886.1,15.756l.34-.2Q979.046,695.148,978.83,687.37Z" transform="translate(-515.823 -417.94)" fill="#f2f2f2"/>
    <path id="Path_107" data-name="Path 107" d="M953.77,371.22l-.87.175a11.368,11.368,0,0,0,1.616,1.57A8.655,8.655,0,0,1,953.77,371.22Z" transform="translate(-503.241 -264.524)" fill="#f2f2f2"/>
    <path id="Path_108" data-name="Path 108" d="M859.148,650.37l.154,22.679a26.719,26.719,0,0,1-.345,5.482c-.309,1.513-.875,2.96-1.2,4.468a30.376,30.376,0,0,0-.381,6.6v1.328l2.919-.031Q859.724,670.635,859.148,650.37Z" transform="translate(-456.88 -399.985)" fill="#f2f2f2"/>
    <path id="Path_109" data-name="Path 109" d="M1034.34,491.7c.257.319.515.638.777.963l-1.313-5.1a3.21,3.21,0,0,0-.556-1.313,5.7,5.7,0,0,0-1.544-.973,4.3,4.3,0,0,1-.345-.257,18.662,18.662,0,0,1,2.229,2.96A9.017,9.017,0,0,1,1034.34,491.7Z" transform="translate(-541.314 -319.747)" fill="#f2f2f2"/>
    <path id="Path_110" data-name="Path 110" d="M896.056,332.684a13.584,13.584,0,0,1-5.379,10.665,7.932,7.932,0,0,0-.607,2.81,5.625,5.625,0,0,0,.592,2.229,2.429,2.429,0,0,1,1.405-.067,3.605,3.605,0,0,1,1.03.561l1.385.968a1.976,1.976,0,0,1,.916-.19,3.964,3.964,0,0,1,1.678.592l7.145,3.824a2.734,2.734,0,0,1,1.246,1.029,1.807,1.807,0,0,1-.046,1.544c4.844-.35,10.176,1.086,12.662,5.209,1.323,2.193,1.652,4.833,1.884,7.386.041.468.077.937.113,1.41a26.827,26.827,0,0,1,5.956-3.377,3.089,3.089,0,0,1,2.363-.381,1.586,1.586,0,0,1,.751.628,7.028,7.028,0,0,1,1.112-1.029,2.574,2.574,0,0,1,1.338-.468.614.614,0,0,1,.036-.088,42.486,42.486,0,0,0,1.462-5.3,13.574,13.574,0,0,1-3.258-6.553,25.379,25.379,0,0,1-4.19-4.283c-3.845,1.251-8.025,2.11-11.473.185-3.006-1.678-4.633-5.24-4.633-8.684a29.664,29.664,0,0,0,.036-3.943,3.876,3.876,0,0,0-2.059-3.155,14.326,14.326,0,0,1-2.27-.69,3.587,3.587,0,0,1-1.318-2.671c-.448-2.975-.319-6.033-1.03-8.951a14.8,14.8,0,0,0-1.287-3.335,12.932,12.932,0,0,1-.391,1.766c-.237,1.338.34,2.769-.1,4.056a3.154,3.154,0,0,1-.762,1.2c-.175,1.3.335,2.666-.093,3.9C899.588,331.32,897.611,331.809,896.056,332.684Z" transform="translate(-472.751 -238.97)" fill="#f2f2f2"/>
    <path id="Path_111" data-name="Path 111" d="M490.09,708.733v12.354H225V708.733a3.6,3.6,0,0,1,3.6-3.6H486.486a3.6,3.6,0,0,1,3.6,3.6Z" transform="translate(-150.018 -426.558)" fill="#3f3d56"/>
    <path id="Path_112" data-name="Path 112" d="M497.489,339.746c1.966,2.023,3.855,4.36,4.226,7.155-4.19,1.1-8.478-.963-12.395-2.8a157.324,157.324,0,0,0-38.091-12.287,5.72,5.72,0,0,1-2.908-1.112c-1.467-1.343-1.2-4.73.165-6.125,1.472-1.5,4.2-1.287,6.177-1.395a56.389,56.389,0,0,1,42.847,16.564Z" transform="translate(-257.909 -241.178)" fill="#192534"/>
    <path id="Path_113" data-name="Path 113" d="M607.634,693.685H502.344a56.906,56.906,0,0,1-3.3-9.945c-.268-1.06-.515-2.131-.762-3.2-.216-.937-.422-1.879-.618-2.816q-.9-4.226-1.544-8.488-.623-4.015-1.029-8.056-.4-3.866-.623-7.757v-.221a4.517,4.517,0,0,1,.844-3.444,4.441,4.441,0,0,1,2.929-.983c8.751-.6,17.254,2.574,25.984,2.105,2.368-.139,4.272-.515,6.475-.062a8.271,8.271,0,0,1,1.029.263c.515.16.993.33,1.482.515,3.351,1.2,6.475,2.713,10.079,3.387,6.136,1.158,12.431.932,18.659,1.379q.772.046,1.544.124c.633.052,1.266.118,1.894.2A70.991,70.991,0,0,1,581,660.6c2.718.983,5.394,2.095,8.035,3.274.757.34,1.508.679,2.26,1.029,1.338.623,2.7,1.282,4.025,2,.515.273,1.029.551,1.513.844,4,2.322,7.613,5.2,9.718,9.116.16.288.3.582.443.88s.242.551.355.834C609.188,683.344,608.545,688.491,607.634,693.685Z" transform="translate(-280.77 -399.177)" fill="#202f42"/>
    <path id="Path_114" data-name="Path 114" d="M607.634,693.685H502.344a56.906,56.906,0,0,1-3.3-9.945c-.268-1.06-.515-2.131-.762-3.2-.216-.937-.422-1.879-.618-2.816q-.9-4.226-1.544-8.488-.623-4.015-1.029-8.056-.4-3.866-.623-7.757v-.221a4.517,4.517,0,0,1,.844-3.444,4.441,4.441,0,0,1,2.929-.983c8.751-.6,17.254,2.574,25.984,2.105,2.368-.139,4.272-.515,6.475-.062a8.271,8.271,0,0,1,1.029.263c.515.16.993.33,1.482.515,3.351,1.2,6.475,2.713,10.079,3.387,6.136,1.158,12.431.932,18.659,1.379q.772.046,1.544.124c.633.052,1.266.118,1.894.2A70.991,70.991,0,0,1,581,660.6c2.718.983,5.394,2.095,8.035,3.274.757.34,1.508.679,2.26,1.029,1.338.623,2.7,1.282,4.025,2,.515.273,1.029.551,1.513.844,4,2.322,7.613,5.2,9.718,9.116.16.288.3.582.443.88s.242.551.355.834C609.188,683.344,608.545,688.491,607.634,693.685Z" transform="translate(-280.77 -399.177)" opacity="0.1"/>
    <path id="Path_115" data-name="Path 115" d="M411.96,700.071H293.287c-2.666-2.934-4.411-6.758-3.979-10.655a33.864,33.864,0,0,1,.813-4.808c.041-.17.088-.335.134-.515a11.957,11.957,0,0,1,5.271-7.206c4.674-3,10.295-4.174,15.442-6.12,2.764-1.029,5.43-2.332,8.195-3.366a65.973,65.973,0,0,1,12.256-3.13c.463-.077.932-.154,1.395-.221s.952-.149,1.431-.216c2.574-.371,5.147-.674,7.747-.973,5.662-.664,11.412-1.323,17.11-.818a58.5,58.5,0,0,1,13.352,3c3.253,1.086,6.465,2.347,9.656,3.6,4.978,1.966,10,3.979,14.438,6.928.386.257.762.515,1.138.788a34.174,34.174,0,0,1,7.68,7.721,36.5,36.5,0,0,1,3.248,5.394A37.434,37.434,0,0,1,411.96,700.071Z" transform="translate(-181.192 -405.563)" fill="#202f42"/>
    <path id="Path_116" data-name="Path 116" d="M439.984,320.222c-1.946,4.267-5.245,8.133-9.667,9.7-2.352.834-4.89.983-7.289,1.668s-4.818,2.1-5.662,4.442a10.391,10.391,0,0,0-.443,3.166c-.365,10.063-.664,20.523,3.356,29.757,3.474,7.968,9.842,14.263,16.132,20.265,7.361,7.021,15.154,14.14,24.836,17.28,5.662,1.827,12.328,2.028,17.012-1.611a24.733,24.733,0,0,0,4.761-5.518c3.088-4.4,6.228-8.864,8.174-13.9,3.989-10.295,2.646-21.763,1.241-32.7a2.667,2.667,0,0,0-.69-1.755,2.889,2.889,0,0,0-2.059-.355c-5.008.3-10.475-2.27-12.153-7a18.356,18.356,0,0,1-.664-6.424l.2-12.467a10.577,10.577,0,0,0-.468-3.984c-.88-2.172-3.088-3.444-5.2-4.494a129.058,129.058,0,0,0-21.248-8.37c-3.2-.942-5.636-2.512-7.062.927C441.574,312.434,441.641,316.583,439.984,320.222Z" transform="translate(-243.055 -233.236)" fill="#fbbebe"/>
    <path id="Path_117" data-name="Path 117" d="M439.984,320.222c-1.946,4.267-5.245,8.133-9.667,9.7-2.352.834-4.89.983-7.289,1.668s-4.818,2.1-5.662,4.442a10.391,10.391,0,0,0-.443,3.166c-.365,10.063-.664,20.523,3.356,29.757,3.474,7.968,9.842,14.263,16.132,20.265,7.361,7.021,15.154,14.14,24.836,17.28,5.662,1.827,12.328,2.028,17.012-1.611a24.733,24.733,0,0,0,4.761-5.518c3.088-4.4,6.228-8.864,8.174-13.9,3.989-10.295,2.646-21.763,1.241-32.7a2.667,2.667,0,0,0-.69-1.755,2.889,2.889,0,0,0-2.059-.355c-5.008.3-10.475-2.27-12.153-7a18.356,18.356,0,0,1-.664-6.424l.2-12.467a10.577,10.577,0,0,0-.468-3.984c-.88-2.172-3.088-3.444-5.2-4.494a129.058,129.058,0,0,0-21.248-8.37c-3.2-.942-5.636-2.512-7.062.927C441.574,312.434,441.641,316.583,439.984,320.222Z" transform="translate(-243.055 -233.236)" opacity="0.1"/>
    <circle id="Ellipse_8" data-name="Ellipse 8" cx="38.091" cy="38.091" r="38.091" transform="translate(192.6 20.93)" fill="#fbbebe"/>
    <path id="Path_118" data-name="Path 118" d="M482.13,389.73,477.873,400.3a33.6,33.6,0,0,1-3.423,6.908,17.159,17.159,0,0,1-18.875,6.223c-6.347-2.1-11.978-8.035-18.531-6.609-3.4.741-6.1,3.469-7.618,6.6a29.327,29.327,0,0,0-2.321,10.115,128.406,128.406,0,0,0,4.5,47.644,9.052,9.052,0,0,0,2.26,4.37c1.5,1.318,3.66,1.513,5.662,1.627q13.9.829,27.847.978a102.457,102.457,0,0,0,17.094-.839c5.642-.885,11.041-2.574,16.605-3.686,5.2-1.029,10.532-1.508,15.617-3.006a4.027,4.027,0,0,0,2.213-1.241,3.7,3.7,0,0,0,.515-2.188,25.957,25.957,0,0,0-1.92-8.637c-2.574-7.119-5.58-14.124-7.011-21.552-1.971-10.218-.813-20.744-1.029-31.152a33.878,33.878,0,0,0-1.611-11.021,14.082,14.082,0,0,0-7.119-8.236C494.849,383.975,484.946,382.8,482.13,389.73Z" transform="translate(-247.821 -270.99)" fill="#16c389"/>
    <path id="Path_119" data-name="Path 119" d="M386.365,409.263c-2.718-2.306-2.574-6.419-2.9-9.97-.592-6.661-3.49-12.868-6.342-18.922l-8.519-18.1c-3.562-7.546-7.206-16.137-4.267-23.956.983-2.635,2.666-4.983,3.531-7.659s.69-6.022-1.5-7.788c-2.79-2.244-6.913-.715-10.068.988a154.136,154.136,0,0,0-16.744,10.526c-1.452,1.03-2.975,2.249-3.449,3.979-.293,1.076-.139,2.255-.551,3.294-.8,2.059-3.3,2.677-5.441,3.16a66.437,66.437,0,0,0-42.363,31.09,36.9,36.9,0,0,0-3.6,8.045A52.748,52.748,0,0,0,282.6,395.02q-.988,14.361-1.9,28.707c-.273,4.236-.54,8.576.618,12.657.746,2.625,2.059,5.08,2.615,7.757,1.127,5.564-1.251,11.247-4.221,16.086s-6.625,9.378-8.488,14.716a34.581,34.581,0,0,0-1.668,10.511,60.328,60.328,0,0,0,9.584,34.024c6.326.932,11.062-5.358,16.873-8.03,8.519-3.907,19.277-.777,27.281-5.605,1.956-1.179,3.649-2.785,5.719-3.758a21.231,21.231,0,0,1,6.017-1.493c7.587-1.1,15.272-2.11,22.9-1.287,10.809,1.168,21.984,5.971,32.15,2.1,2.507-.957,4.8-2.4,7.32-3.336,9.265-3.433,19.56.669,29.428-.087-1.544-.082-2.234-1.832-2.522-3.372q-.973-5.122-1.719-10.295a24.309,24.309,0,0,1-.129-9c.628-2.728,2.131-5.147,3.392-7.649,3.979-7.875,5.662-16.708,9.075-24.852,1.621-3.881,3.6-7.587,5.528-11.324A233.537,233.537,0,0,0,458.5,383.326c-4.494-8.066-8.565-16.472-13.059-24.532a24.7,24.7,0,0,0-4.633-6.522c-2.852-2.615-6.717-3.752-10.439-4.808a36.164,36.164,0,0,0-9.78-1.832c-3.341-.005-12.74-3.5-14.994-1.06-2.327,2.512,2.908,10.624,2.79,14.042s.257,6.877-.309,10.254c-.824,4.926-3.6,9.317-4.864,14.145a69.482,69.482,0,0,0-1.148,6.918A78.6,78.6,0,0,1,398,405.15a10.3,10.3,0,0,1-1.488,2.893C394.075,411.029,390.153,409.9,386.365,409.263Z" transform="translate(-171.631 -240.516)" fill="#192534"/>
    <path id="Path_120" data-name="Path 120" d="M617.991,593.148a21.225,21.225,0,0,0,3.526,2.965c4.761,3.732,7.561,9.409,11.767,13.759,2.121,2.2,4.586,4.036,6.846,6.089,5.255,4.787,9.327,10.7,13.352,16.559a17.272,17.272,0,0,1,2.574,4.756,11.026,11.026,0,0,1-1.472,8.884,19.47,19.47,0,0,1-6.789,6.208,32.888,32.888,0,0,1-4.349,2.162,3.467,3.467,0,0,1-4.293-4.988,59.867,59.867,0,0,0,3.027-5.508,7.845,7.845,0,0,0,.978-3.408c-.041-2.1-1.7-3.881-3.6-4.761a20.384,20.384,0,0,0-6.136-1.287,68.553,68.553,0,0,1-32.552-12.951c-5.4-4.015-10.614-9.9-9.754-16.575.638-4.983,4.581-8.946,8.91-11.5a33.115,33.115,0,0,1,11.407-4.118c1.132-.185,3.974-.963,4.988-.18C617.317,589.926,617.147,592.119,617.991,593.148Z" transform="translate(-327.633 -370.163)" fill="#fbbebe"/>
    <path id="Path_121" data-name="Path 121" d="M617.991,593.148a21.225,21.225,0,0,0,3.526,2.965c4.761,3.732,7.561,9.409,11.767,13.759,2.121,2.2,4.586,4.036,6.846,6.089,5.255,4.787,9.327,10.7,13.352,16.559a17.272,17.272,0,0,1,2.574,4.756,11.026,11.026,0,0,1-1.472,8.884,19.47,19.47,0,0,1-6.789,6.208,32.888,32.888,0,0,1-4.349,2.162,3.467,3.467,0,0,1-4.293-4.988,59.867,59.867,0,0,0,3.027-5.508,7.845,7.845,0,0,0,.978-3.408c-.041-2.1-1.7-3.881-3.6-4.761a20.384,20.384,0,0,0-6.136-1.287,68.553,68.553,0,0,1-32.552-12.951c-5.4-4.015-10.614-9.9-9.754-16.575.638-4.983,4.581-8.946,8.91-11.5a33.115,33.115,0,0,1,11.407-4.118c1.132-.185,3.974-.963,4.988-.18C617.317,589.926,617.147,592.119,617.991,593.148Z" transform="translate(-327.633 -370.163)" opacity="0.1"/>
    <path id="Path_122" data-name="Path 122" d="M487.173,201.41c-5.147,5.271-13.414,5.492-20.785,5.364l.242-2.888L456.263,207.6a27.847,27.847,0,0,0,6.8-7.278,4.625,4.625,0,0,0-5.044-.329,10.69,10.69,0,0,0-3.773,3.732A34.024,34.024,0,0,0,450.483,234a6.665,6.665,0,0,1-6.661-.438,11.865,11.865,0,0,1-4.293-5.415c-.613-1.4-1.251-3.058-2.713-3.5a3.032,3.032,0,0,0-3.253,1.467,6.275,6.275,0,0,0-.705,3.706c.19,3,2.378,5.837,2.816,8.8s4.864,5.271,2.574,7.206c-.659.561-7.417,2.09-8.272,1.956a3.641,3.641,0,0,1-2.409-2.363c-2.306-5.065-1.477-10.984-2.841-16.379-1.1-4.339-3.567-8.189-6-11.947a17.5,17.5,0,0,0-2.3-3.042,7.75,7.75,0,0,1-2.2-2.538c-.391-1.06.329-2.574,1.446-2.4a46.841,46.841,0,0,0-5.8-4.772q3.057-3.871,5.981-7.839c.669-.906,1.364-2.059.875-3.088a3.207,3.207,0,0,0-1.168-1.132l-5.322-3.6c-.118-2.445,4.859-1.544,5.626-3.855a3.243,3.243,0,0,0-.134-1.843l-1.812-6.609,6.882,3.119a4.819,4.819,0,0,0,2.635.633c1.817-.263,2.692-2.414,2.785-4.252s-.2-3.814.71-5.415q4.674-.185,9.342.067a6.136,6.136,0,0,0-1.158-4.416l23-1.277c3.927-.216,7.963-.417,11.695.818a9.307,9.307,0,0,0,3.871.88c1.328-.149,2.666-1.374,2.285-2.651a41.745,41.745,0,0,1,9.363,7.206,9.533,9.533,0,0,0,2.661,2.2,2.839,2.839,0,0,0,3.222-.391c.628-.685.942-1.879,1.868-1.92a1.946,1.946,0,0,1,1.395.911,22.7,22.7,0,0,1,3.181,5.523,20.234,20.234,0,0,0,4.813-1.266c-1.606,1.354-1.647,3.876-.88,5.832s2.157,3.6,3.088,5.477a22.358,22.358,0,0,1,1.848,6.347c.468,2.749.474,6.213-1.966,7.562-2.121,1.174-4.751-.077-6.692-1.544C492.521,195.809,491.5,196.983,487.173,201.41Z" transform="translate(-239.728 -163.91)" fill="#16c389"/>
    <path id="Path_123" data-name="Path 123" d="M606.488,693.634l35.666-3.217a5.559,5.559,0,0,0,5.055-5.832l-.026-.515a5.554,5.554,0,0,0-3.953-5.034l-5.765-1.729a5.6,5.6,0,0,0-1.6-.237h-13.08a5.758,5.758,0,0,0-1.065.1c-2.764.54-15.483,3.042-15.957,3.5-.252.257-1.766,1.39-3.227,2.471a5.554,5.554,0,0,0-2.105,5.745l.108.474A5.559,5.559,0,0,0,606.488,693.634Z" transform="translate(-332.127 -412.942)" fill="#464a5f"/>
    <path id="Path_124" data-name="Path 124" d="M578.5,679.642l14.413-4.118,26.766-3.6s16.986-4.633,18.531,9.78l-1.441,2.44s1.441-9.131-16.06-6.558c0,0-31.466-1.055-30.143,11.324C590.565,688.9,579.529,686.849,578.5,679.642Z" transform="translate(-321.558 -410.099)" fill="#16c389"/>
    <ellipse id="Ellipse_9" data-name="Ellipse 9" cx="3.603" cy="0.515" rx="3.603" ry="0.515" transform="translate(272.899 259.768)" fill="#16c389"/>
    <rect id="Rectangle_84" data-name="Rectangle 84" width="2.574" height="4.633" transform="translate(306.099 260.54)" fill="#16c389"/>
    <rect id="Rectangle_85" data-name="Rectangle 85" width="2.574" height="4.633" transform="translate(275.215 260.54)" fill="#16c389"/>
    <ellipse id="Ellipse_10" data-name="Ellipse 10" cx="1.287" cy="4.118" rx="1.287" ry="4.118" transform="translate(302.556 259.217) rotate(-69.04)" fill="#16c389"/>
    <path id="Path_125" data-name="Path 125" d="M382.918,655.389a14.25,14.25,0,0,0,3.639,3.037,14.414,14.414,0,0,0,4.416,1.169q23.39,3.6,46.615,8.061a67.074,67.074,0,0,1,12.868,3.413c2.1.87,4.118,1.951,6.177,2.862,11.839,5.194,25.222,4.859,38.137,4.427,2.527-.082,5.147-.185,7.428-1.24,1.7-.777,3.263-2.255,3.418-4.118.268-3.238-3.413-5.147-6.352-6.542a37.029,37.029,0,0,1-16.827-15.519c-.659-1.2-1.194-2.826-.268-3.845a3.635,3.635,0,0,1,2.908-.726q6.486.252,12.971-.134c2.239-.139,5.2-1.2,4.849-3.408a4.1,4.1,0,0,0-1.678-2.27c-3.9-3.274-8.318-6.645-13.409-6.547-2.672.051-5.219,1.071-7.721,1.93-13.476,4.571-27.986,4.823-42.208,4.73a50.854,50.854,0,0,1-10.393-.777,54.353,54.353,0,0,1-8.2-2.641c-8.627-3.289-17.29-6.6-25.279-11.216-3.176-1.832-6.717-3.953-10.259-3.011a10.68,10.68,0,0,0-4.221,2.574c-4.216,3.809-7.773,8.473-6.573,14.32C374.178,646.062,378.728,651.013,382.918,655.389Z" transform="translate(-221.702 -386.602)" fill="#fbbebe"/>
    <path id="Path_126" data-name="Path 126" d="M346.482,464.851c1.328,4.3,2.105,8.848,4.391,12.724,2.424,4.118,6.46,7.309,7.86,11.875.988,3.233.515,6.692.515,10.084a19.845,19.845,0,0,0,2.852,11.01c1.071,1.616,2.466,2.985,3.685,4.494,5.41,6.692,7.078,15.627,7.752,24.193-5.147-2.913-11.17-5.919-16.744-3.917a18.306,18.306,0,0,0-5.93,4,76.073,76.073,0,0,0-9.384,10.295c-1.472,1.941-2.919,4.313-2.28,6.661a107.662,107.662,0,0,1-8.5-13.754c-1.678-3.48-2.98-7.155-4.993-10.459-2.533-4.154-6.1-7.567-9.1-11.4-6.743-8.606-10.526-19.262-12.364-30.014s-1.915-21.768-1.858-32.7c0-3.6.077-7.35,1.6-10.629a25.391,25.391,0,0,1,3.639-5.3,23.373,23.373,0,0,1,5.863-5.662c7.484-4.406,15.514,2.9,20.517,7.9A50.3,50.3,0,0,1,346.482,464.851Z" transform="translate(-187.561 -295.471)" fill="#192534"/>
    <path id="Path_127" data-name="Path 127" d="M606.622,436.944a7.036,7.036,0,0,1,1.647,2.249,7.541,7.541,0,0,1,.206,3.258,67.612,67.612,0,0,0,1.374,19.488c.839,3.866,1.9,8.339-.566,11.432a9.5,9.5,0,0,0-1.029,1.313c-1.143,2.141.968,4.473,2.574,6.311a18.633,18.633,0,0,1,1.879,20.981,17.881,17.881,0,0,0-1.992,3.752,11.88,11.88,0,0,0-.319,3.418l.021,8.612c-5.41-.726-11.458-1.292-15.808,2.008-3.67,2.78-5.122,7.618-8.236,10.984-3.021,3.243-7.721,5.333-8.9,9.6l.062-17.794a41.1,41.1,0,0,0-.381-7.073c-.618-3.68-2.219-7.124-3.155-10.737-1.225-4.725-1.3-9.662-1.374-14.546-.118-8.066-.232-16.219,1.441-24.11.685-3.212,1.657-6.357,2.409-9.553,1.364-5.765,2.059-11.767,4.452-17.182s7.093-10.326,12.992-10.907C600.131,427.828,602.766,432.914,606.622,436.944Z" transform="translate(-318.677 -292.271)" fill="#192534"/>
    <ellipse id="Ellipse_11" data-name="Ellipse 11" cx="3.603" cy="6.692" rx="3.603" ry="6.692" transform="translate(301.176 250.368) rotate(-30)" fill="#fbbebe"/>
    <ellipse id="Ellipse_12" data-name="Ellipse 12" cx="3.603" cy="6.692" rx="3.603" ry="6.692" transform="translate(301.176 250.368) rotate(-30)" opacity="0.1"/>
  </g>
</svg>
