<svg id="programming" xmlns="http://www.w3.org/2000/svg" width="302" height="219.646" viewBox="0 0 302 219.646">
  <circle id="Ellipse_1" data-name="Ellipse 1" cx="10.248" cy="10.248" r="10.248" transform="translate(165.666 18.224)" fill="#f2f2f2"/>
  <path id="Path_1" data-name="Path 1" d="M488.665,374.854a48.282,48.282,0,0,0,17.954-49.7q-.17-.693-.358-1.383c-3.02-11.04-10.491-21.533-21.379-25.06-9.143-2.962-19.122-.684-28.66-1.862-18.723-2.312-33.239-17.462-43.453-33.323s-18.063-33.616-31.635-46.72c-22.371-21.6-58.864-26.25-86.6-12.19s-45.405,45.253-44.652,76.341,19.209,60.81,46.011,76.579c9.846,5.793,21.234,9.9,32.567,8.461,9.833-1.246,18.769-6.53,28.556-8.1,15.388-2.466,30.678,4.491,43.987,12.6s26.165,17.717,41.289,21.476C456.977,395.622,475.17,385.132,488.665,374.854Z" transform="translate(-233.25 -184.035)" fill="#f2f2f2"/>
  <path id="Path_2" data-name="Path 2" d="M547.355,185.1c-.334-.223-.672-.434-1.006-.649a145.947,145.947,0,0,0-30.825-14.942l-2.51,34.629H497.1V164.458c-1-.207-2.011-.4-3.021-.587v40.271H475.169a39.254,39.254,0,0,1-39.254-39.254h0c-1.013.219-2.019.453-3.025.7v38.551h-15.4l-2.391-33.02a146.185,146.185,0,0,0-31.45,16.708c-.169.115-.338.234-.5.349-.848.595-1.685,1.2-2.518,1.815V322.1h45.395l-.8-11.112L420.8,249.982h88.89L505.28,310.99l-.8,11.112H549.37V186.44Q548.368,185.76,547.355,185.1Zm-114.464,54.8H420.075l-2.368-32.74h15.184Zm61.189,0H472.555v-.649a2.372,2.372,0,0,0-2.376-2.372h-9.358a2.371,2.371,0,0,0-2.372,2.372v.649H435.916v-32.74H494.08Zm3.021,0v-32.74H512.8l-2.368,32.74Z" transform="translate(-313.827 -163.871)" fill="#3f3d56"/>
  <path id="Path_3" data-name="Path 3" d="M206.59,598.162a110.923,110.923,0,0,0,10.793,11.112l280.414.384a110.929,110.929,0,0,0,10.793-11.112Z" transform="translate(-206.59 -431.471)" fill="#3f3d56"/>
  <path id="Path_4" data-name="Path 4" d="M702.02,502.927v32.9A1.582,1.582,0,0,0,703.6,537.4h48.747a1.582,1.582,0,0,0,1.581-1.581v-32.9a1.583,1.583,0,0,0-1.581-1.579H703.6A1.583,1.583,0,0,0,702.02,502.927Z" transform="translate(-511.862 -371.816)" fill="#3f3d56"/>
  <path id="Path_5" data-name="Path 5" d="M705,505.17v32.08a.846.846,0,0,0,.845.845h47.934a.847.847,0,0,0,.845-.845V505.17a.847.847,0,0,0-.845-.847H705.844a.847.847,0,0,0-.845.847Z" transform="translate(-513.698 -373.649)" fill="#16c389"/>
  <path id="Path_6" data-name="Path 6" d="M699.017,599.194a.949.949,0,0,0,.746.357h52.2a.961.961,0,0,0,.939-1.157l-.81-3.849a.962.962,0,0,0-.6-.7.931.931,0,0,0-.341-.064H700.57a.934.934,0,0,0-.341.064.962.962,0,0,0-.6.7l-.81,3.849A.96.96,0,0,0,699.017,599.194Z" transform="translate(-509.879 -428.772)" fill="#2f2e41"/>
  <rect id="Rectangle_2" data-name="Rectangle 2" width="1.608" height="0.965" rx="0.482" transform="translate(240.9 166.668) rotate(180)" fill="#3f3d56"/>
  <rect id="Rectangle_3" data-name="Rectangle 3" width="1.608" height="0.965" rx="0.482" transform="translate(237.685 166.668) rotate(180)" fill="#3f3d56"/>
  <rect id="Rectangle_4" data-name="Rectangle 4" width="1.608" height="0.965" rx="0.482" transform="translate(234.469 166.668) rotate(180)" fill="#3f3d56"/>
  <rect id="Rectangle_5" data-name="Rectangle 5" width="1.608" height="0.965" rx="0.482" transform="translate(231.254 166.668) rotate(180)" fill="#3f3d56"/>
  <rect id="Rectangle_6" data-name="Rectangle 6" width="1.608" height="0.965" rx="0.482" transform="translate(228.039 166.668) rotate(180)" fill="#3f3d56"/>
  <rect id="Rectangle_7" data-name="Rectangle 7" width="1.608" height="0.965" rx="0.482" transform="translate(224.824 166.668) rotate(180)" fill="#3f3d56"/>
  <rect id="Rectangle_8" data-name="Rectangle 8" width="1.608" height="0.965" rx="0.482" transform="translate(221.608 166.668) rotate(180)" fill="#3f3d56"/>
  <rect id="Rectangle_9" data-name="Rectangle 9" width="1.608" height="0.965" rx="0.482" transform="translate(218.393 166.668) rotate(180)" fill="#3f3d56"/>
  <rect id="Rectangle_10" data-name="Rectangle 10" width="1.608" height="0.965" rx="0.482" transform="translate(215.178 166.668) rotate(180)" fill="#3f3d56"/>
  <rect id="Rectangle_11" data-name="Rectangle 11" width="1.608" height="0.965" rx="0.482" transform="translate(211.962 166.668) rotate(180)" fill="#3f3d56"/>
  <rect id="Rectangle_12" data-name="Rectangle 12" width="1.608" height="0.965" rx="0.482" transform="translate(208.747 166.668) rotate(180)" fill="#3f3d56"/>
  <rect id="Rectangle_13" data-name="Rectangle 13" width="1.608" height="0.965" rx="0.482" transform="translate(205.532 166.668) rotate(180)" fill="#3f3d56"/>
  <rect id="Rectangle_14" data-name="Rectangle 14" width="1.608" height="0.965" rx="0.482" transform="translate(202.317 166.668) rotate(180)" fill="#3f3d56"/>
  <rect id="Rectangle_15" data-name="Rectangle 15" width="1.608" height="0.965" rx="0.482" transform="translate(199.101 166.668) rotate(180)" fill="#3f3d56"/>
  <rect id="Rectangle_16" data-name="Rectangle 16" width="1.608" height="0.965" rx="0.482" transform="translate(195.886 166.668) rotate(180)" fill="#3f3d56"/>
  <rect id="Rectangle_17" data-name="Rectangle 17" width="1.608" height="0.965" rx="0.482" transform="translate(192.671 166.668) rotate(180)" fill="#3f3d56"/>
  <rect id="Rectangle_18" data-name="Rectangle 18" width="1.608" height="0.965" rx="0.482" transform="translate(240.938 168.275) rotate(180)" fill="#3f3d56"/>
  <rect id="Rectangle_19" data-name="Rectangle 19" width="1.608" height="0.965" rx="0.482" transform="translate(237.723 168.275) rotate(180)" fill="#3f3d56"/>
  <rect id="Rectangle_20" data-name="Rectangle 20" width="1.608" height="0.965" rx="0.482" transform="translate(234.507 168.275) rotate(180)" fill="#3f3d56"/>
  <rect id="Rectangle_21" data-name="Rectangle 21" width="1.608" height="0.965" rx="0.482" transform="translate(231.292 168.275) rotate(180)" fill="#3f3d56"/>
  <rect id="Rectangle_22" data-name="Rectangle 22" width="1.608" height="0.965" rx="0.482" transform="translate(228.077 168.275) rotate(180)" fill="#3f3d56"/>
  <rect id="Rectangle_23" data-name="Rectangle 23" width="1.608" height="0.965" rx="0.482" transform="translate(224.862 168.275) rotate(180)" fill="#3f3d56"/>
  <rect id="Rectangle_24" data-name="Rectangle 24" width="1.608" height="0.965" rx="0.482" transform="translate(221.646 168.275) rotate(180)" fill="#3f3d56"/>
  <rect id="Rectangle_25" data-name="Rectangle 25" width="1.608" height="0.965" rx="0.482" transform="translate(218.431 168.275) rotate(180)" fill="#3f3d56"/>
  <rect id="Rectangle_26" data-name="Rectangle 26" width="1.608" height="0.965" rx="0.482" transform="translate(215.216 168.275) rotate(180)" fill="#3f3d56"/>
  <rect id="Rectangle_27" data-name="Rectangle 27" width="1.608" height="0.965" rx="0.482" transform="translate(212 168.275) rotate(180)" fill="#3f3d56"/>
  <rect id="Rectangle_28" data-name="Rectangle 28" width="1.608" height="0.965" rx="0.482" transform="translate(208.785 168.275) rotate(180)" fill="#3f3d56"/>
  <rect id="Rectangle_29" data-name="Rectangle 29" width="1.608" height="0.965" rx="0.482" transform="translate(205.57 168.275) rotate(180)" fill="#3f3d56"/>
  <rect id="Rectangle_30" data-name="Rectangle 30" width="1.608" height="0.965" rx="0.482" transform="translate(202.355 168.275) rotate(180)" fill="#3f3d56"/>
  <rect id="Rectangle_31" data-name="Rectangle 31" width="1.608" height="0.965" rx="0.482" transform="translate(199.139 168.275) rotate(180)" fill="#3f3d56"/>
  <rect id="Rectangle_32" data-name="Rectangle 32" width="1.608" height="0.965" rx="0.482" transform="translate(195.924 168.275) rotate(180)" fill="#3f3d56"/>
  <rect id="Rectangle_33" data-name="Rectangle 33" width="1.608" height="0.965" rx="0.482" transform="translate(192.709 168.275) rotate(180)" fill="#3f3d56"/>
  <rect id="Rectangle_34" data-name="Rectangle 34" width="12.861" height="0.965" rx="0.482" transform="translate(225.505 170.205) rotate(180)" fill="#3f3d56"/>
  <rect id="Rectangle_35" data-name="Rectangle 35" width="2.29" height="1.198" rx="0.599" transform="translate(197.911 137.692)" fill="#f0f0f0"/>
  <rect id="Rectangle_36" data-name="Rectangle 36" width="2.29" height="1.198" rx="0.599" transform="translate(210.394 137.692)" fill="#f0f0f0"/>
  <rect id="Rectangle_37" data-name="Rectangle 37" width="2.29" height="1.198" rx="0.599" transform="translate(213.931 137.692)" fill="#f0f0f0"/>
  <rect id="Rectangle_38" data-name="Rectangle 38" width="7.982" height="1.198" rx="0.599" transform="translate(201.307 137.592)" fill="#f0f0f0"/>
  <rect id="Rectangle_39" data-name="Rectangle 39" width="7.982" height="1.198" rx="0.599" transform="translate(217.951 137.592)" fill="#f0f0f0"/>
  <rect id="Rectangle_40" data-name="Rectangle 40" width="2.29" height="1.198" rx="0.599" transform="translate(201.24 140.397)" fill="#f0f0f0"/>
  <rect id="Rectangle_41" data-name="Rectangle 41" width="2.29" height="1.198" rx="0.599" transform="translate(213.723 140.397)" fill="#f0f0f0"/>
  <rect id="Rectangle_42" data-name="Rectangle 42" width="2.29" height="1.198" rx="0.599" transform="translate(217.26 140.397)" fill="#f0f0f0"/>
  <rect id="Rectangle_43" data-name="Rectangle 43" width="7.982" height="1.198" rx="0.599" transform="translate(204.635 140.296)" fill="#f0f0f0"/>
  <rect id="Rectangle_44" data-name="Rectangle 44" width="7.982" height="1.198" rx="0.599" transform="translate(221.28 140.296)" fill="#f0f0f0"/>
  <rect id="Rectangle_45" data-name="Rectangle 45" width="2.29" height="1.198" rx="0.599" transform="translate(204.569 143.101)" fill="#f0f0f0"/>
  <rect id="Rectangle_46" data-name="Rectangle 46" width="2.29" height="1.198" rx="0.599" transform="translate(217.052 143.101)" fill="#f0f0f0"/>
  <rect id="Rectangle_47" data-name="Rectangle 47" width="2.29" height="1.198" rx="0.599" transform="translate(220.589 143.101)" fill="#f0f0f0"/>
  <rect id="Rectangle_48" data-name="Rectangle 48" width="7.982" height="1.198" rx="0.599" transform="translate(207.964 143.001)" fill="#f0f0f0"/>
  <rect id="Rectangle_49" data-name="Rectangle 49" width="7.982" height="1.198" rx="0.599" transform="translate(224.608 143.001)" fill="#f0f0f0"/>
  <rect id="Rectangle_50" data-name="Rectangle 50" width="2.29" height="1.198" rx="0.599" transform="translate(207.898 145.806)" fill="#f0f0f0"/>
  <rect id="Rectangle_51" data-name="Rectangle 51" width="2.29" height="1.198" rx="0.599" transform="translate(220.381 145.806)" fill="#f0f0f0"/>
  <rect id="Rectangle_52" data-name="Rectangle 52" width="2.29" height="1.198" rx="0.599" transform="translate(223.918 145.806)" fill="#f0f0f0"/>
  <rect id="Rectangle_53" data-name="Rectangle 53" width="7.982" height="1.198" rx="0.599" transform="translate(211.293 145.706)" fill="#f0f0f0"/>
  <rect id="Rectangle_54" data-name="Rectangle 54" width="2.29" height="1.198" rx="0.599" transform="translate(210.394 156.561)" fill="#f0f0f0"/>
  <rect id="Rectangle_55" data-name="Rectangle 55" width="2.29" height="1.198" rx="0.599" transform="translate(213.931 156.561)" fill="#f0f0f0"/>
  <rect id="Rectangle_56" data-name="Rectangle 56" width="7.982" height="1.198" rx="0.599" transform="translate(217.951 156.661)" fill="#f0f0f0"/>
  <rect id="Rectangle_57" data-name="Rectangle 57" width="2.29" height="1.198" rx="0.599" transform="translate(197.911 156.561)" fill="#f0f0f0"/>
  <rect id="Rectangle_58" data-name="Rectangle 58" width="7.982" height="1.198" rx="0.599" transform="translate(201.307 156.661)" fill="#f0f0f0"/>
  <rect id="Rectangle_59" data-name="Rectangle 59" width="2.29" height="1.198" rx="0.599" transform="translate(201.24 153.856)" fill="#f0f0f0"/>
  <rect id="Rectangle_60" data-name="Rectangle 60" width="2.29" height="1.198" rx="0.599" transform="translate(213.723 153.856)" fill="#f0f0f0"/>
  <rect id="Rectangle_61" data-name="Rectangle 61" width="2.29" height="1.198" rx="0.599" transform="translate(217.26 153.856)" fill="#f0f0f0"/>
  <rect id="Rectangle_62" data-name="Rectangle 62" width="7.982" height="1.198" rx="0.599" transform="translate(204.635 153.956)" fill="#f0f0f0"/>
  <rect id="Rectangle_63" data-name="Rectangle 63" width="2.29" height="1.198" rx="0.599" transform="translate(204.569 151.151)" fill="#f0f0f0"/>
  <rect id="Rectangle_64" data-name="Rectangle 64" width="2.29" height="1.198" rx="0.599" transform="translate(217.052 151.151)" fill="#f0f0f0"/>
  <rect id="Rectangle_65" data-name="Rectangle 65" width="2.29" height="1.198" rx="0.599" transform="translate(220.589 151.151)" fill="#f0f0f0"/>
  <rect id="Rectangle_66" data-name="Rectangle 66" width="7.982" height="1.198" rx="0.599" transform="translate(207.964 151.251)" fill="#f0f0f0"/>
  <rect id="Rectangle_67" data-name="Rectangle 67" width="2.29" height="1.198" rx="0.599" transform="translate(207.898 148.447)" fill="#f0f0f0"/>
  <rect id="Rectangle_68" data-name="Rectangle 68" width="2.29" height="1.198" rx="0.599" transform="translate(220.381 148.447)" fill="#f0f0f0"/>
  <rect id="Rectangle_69" data-name="Rectangle 69" width="2.29" height="1.198" rx="0.599" transform="translate(223.918 148.447)" fill="#f0f0f0"/>
  <rect id="Rectangle_70" data-name="Rectangle 70" width="7.982" height="1.198" rx="0.599" transform="translate(211.293 148.547)" fill="#f0f0f0"/>
  <path id="Path_7" data-name="Path 7" d="M703.281,605.066l-5.124-8.1,16.083-12.821,6.638-7.354a7.354,7.354,0,0,1,12.443,2.621h0a7.355,7.355,0,0,1-4.441,9.208l-10.5,3.867Z" transform="translate(-509.482 -416.807)" fill="#ffb6b6"/>
  <path id="Path_8" data-name="Path 8" d="M398.28,499.22v39.365h27.578V499.22a1.323,1.323,0,0,0-.933-1.267,1.22,1.22,0,0,0-.4-.061H399.612A1.329,1.329,0,0,0,398.28,499.22Zm10.762,13.526a2.944,2.944,0,0,1,5.888,0v4.568a2.944,2.944,0,1,1-5.888,0Z" transform="translate(-324.705 -369.687)" fill="#2f2e41"/>
  <path id="Path_9" data-name="Path 9" d="M398.06,600.632v3.8a.747.747,0,0,0,.741.745h26.265a.745.745,0,0,0,.741-.745v-3.8Z" transform="translate(-324.569 -432.993)" fill="#3f3d56"/>
  <path id="Path_10" data-name="Path 10" d="M285.25,341.293v71.875a3.457,3.457,0,0,0,3.454,3.454H395.215a3.457,3.457,0,0,0,3.454-3.454V341.293a3.459,3.459,0,0,0-3.454-3.451H288.7A3.459,3.459,0,0,0,285.25,341.293Z" transform="translate(-255.058 -271.068)" fill="#3f3d56"/>
  <path id="Path_11" data-name="Path 11" d="M291.76,346.192v70.094a1.849,1.849,0,0,0,1.846,1.846H398.34a1.849,1.849,0,0,0,1.846-1.846V346.192a1.85,1.85,0,0,0-1.846-1.85H293.606A1.85,1.85,0,0,0,291.76,346.192Z" transform="translate(-259.07 -275.073)" fill="#f0f0f0"/>
  <path id="Path_12" data-name="Path 12" d="M341.986,601.422a1.132,1.132,0,0,0,.891.426h62.31a1.147,1.147,0,0,0,1.121-1.382l-.967-4.594a1.149,1.149,0,0,0-.714-.833,1.11,1.11,0,0,0-.407-.077H343.84a1.109,1.109,0,0,0-.407.077,1.148,1.148,0,0,0-.714.833l-.967,4.594A1.146,1.146,0,0,0,341.986,601.422Z" transform="translate(-289.859 -429.499)" fill="#2f2e41"/>
  <path id="Path_13" data-name="Path 13" d="M402.635,368.247h-98a.39.39,0,1,1,0-.779h98a.39.39,0,0,1,0,.78Z" transform="translate(-266.763 -289.323)" fill="#3f3d56"/>
  <ellipse id="Ellipse_2" data-name="Ellipse 2" cx="2.284" cy="2.335" rx="2.284" ry="2.335" transform="translate(42.259 71.486)" fill="#3f3d56"/>
  <ellipse id="Ellipse_3" data-name="Ellipse 3" cx="2.284" cy="2.335" rx="2.284" ry="2.335" transform="translate(50.149 71.486)" fill="#3f3d56"/>
  <ellipse id="Ellipse_4" data-name="Ellipse 4" cx="2.284" cy="2.335" rx="2.284" ry="2.335" transform="translate(58.039 71.486)" fill="#3f3d56"/>
  <path id="Path_14" data-name="Path 14" d="M538.545,351.622h-5.6a.424.424,0,0,0,0,.848h5.6a.424.424,0,0,0,0-.848Z" transform="translate(-407.424 -279.559)" fill="#3f3d56"/>
  <path id="Path_15" data-name="Path 15" d="M538.529,355.772h-5.6a.424.424,0,1,0,0,.848h5.6a.424.424,0,0,0,0-.848Z" transform="translate(-407.409 -282.116)" fill="#3f3d56"/>
  <path id="Path_16" data-name="Path 16" d="M538.545,359.922h-5.6a.424.424,0,0,0,0,.848h5.6a.424.424,0,0,0,0-.848Z" transform="translate(-407.424 -284.673)" fill="#3f3d56"/>
  <path id="Path_17" data-name="Path 17" d="M895.622,567.1A2.463,2.463,0,0,0,898,568.762l10.168-.262a2.429,2.429,0,0,0,2.3-1.787l1.439-15.386a3.758,3.758,0,0,0,1.627.334,3.708,3.708,0,0,0-.186-7.414,3.131,3.131,0,0,0-.666.069,2.514,2.514,0,0,0-1.871-.807l-15.641.4a2.242,2.242,0,0,0-.386.048,2.443,2.443,0,0,0-1.87,3.172Zm16.571-16.818,1.024-3.667a2.5,2.5,0,0,0,.008-1.3c.05,0,.094-.024.143-.024a2.652,2.652,0,1,1,.124,5.3,2.5,2.5,0,0,1-1.3-.317Z" transform="translate(-629.404 -397.795)" fill="#2f2e41"/>
  <path id="Path_18" data-name="Path 18" d="M897.978,543.96c.333,1.905,4.08,3.245,8.585,3.012,4.142-.191,7.53-1.646,8.15-3.37a2.312,2.312,0,0,0-.708-.094l-15.641.4A2.253,2.253,0,0,0,897.978,543.96Z" transform="translate(-632.607 -397.794)" fill="#3f3d56"/>
  <path id="Path_19" data-name="Path 19" d="M921.971,577.6a.187.187,0,0,0,.058-.025l2.208-1.445a.192.192,0,0,0,0-.321l-2.3-1.5a.192.192,0,0,0-.21.321l2.05,1.343-1.963,1.285a.192.192,0,0,0,.152.346Z" transform="translate(-647.19 -416.754)" fill="#16c389"/>
  <path id="Path_20" data-name="Path 20" d="M909.349,578.023a.192.192,0,0,0,.048-.352l-2.035-1.167,1.967-1.461a.192.192,0,0,0-.229-.308l-2.2,1.636a.192.192,0,0,0,.019.32l2.29,1.313A.192.192,0,0,0,909.349,578.023Z" transform="translate(-638.055 -417.012)" fill="#16c389"/>
  <path id="Path_21" data-name="Path 21" d="M916.513,577.375a.182.182,0,0,0,.052-.022.192.192,0,0,0,.064-.264l-3.13-5.146a.192.192,0,1,0-.328.2l3.13,5.146A.192.192,0,0,0,916.513,577.375Z" transform="translate(-641.952 -415.258)" fill="#16c389"/>
  <rect id="Rectangle_71" data-name="Rectangle 71" width="19.467" height="4.163" rx="2.081" transform="translate(80.367 100.112)" fill="#16c389"/>
  <rect id="Rectangle_72" data-name="Rectangle 72" width="39.241" height="4.163" rx="2.081" transform="translate(70.48 108.437)" fill="#e6e6e6"/>
  <rect id="Rectangle_73" data-name="Rectangle 73" width="39.241" height="4.163" rx="2.081" transform="translate(70.48 116.763)" fill="#e6e6e6"/>
  <path id="Path_22" data-name="Path 22" d="M497.3,506.485l.083.263,0,.009,2.5,7.614,2.881,8.775,5.421,16.49.053,2.561v.009l.4,20.605-1.117,2.794,1.257,4.58s-.578-6.923-3.678-2.947c-1.756,2.259-3.809,4.571-5.5,6.739q3.685,1.491,7.487,2.7c.547.175,1.1.341,1.651.508l.355.1a102.428,102.428,0,0,0,25.851,4.155c.455.013.9.022,1.335.031.153,0,.3.009.451.009.49,0,.976.009,1.467.009q1.484,0,2.956-.044a102.425,102.425,0,0,0,21.529-2.912c-.048-2.912-.18-6.314-.368-9.948-.088-1.782-2.053-3.713-2.172-5.578-.083-1.4,1.681-2.719,1.59-4.142-.6-8.762-1.34-5.4-1.892-11.6q-.085-.913-.157-1.747c-.355-3.985-.6-6.476-.6-6.476l2.356-14.848,3.7-23.311-.285-.469-.32-.158L545.036,490.6l-1.06-2.715a4.214,4.214,0,0,0-3.893-2.667l-12.855-.053a4.2,4.2,0,0,0-3.42,1.738l-3.481,4.821Z" transform="translate(-385.719 -361.843)" fill="#3f3d56"/>
  <path id="Path_23" data-name="Path 23" d="M489.587,559.949l-2.912,6.23-1.988,4.256-3.42,17.9-1.712,1.817-1.467-6.433-15.352,3.409a13.063,13.063,0,0,1-.446-2.975c.088-.088.18-.175.271-.263.245-.228.451-.442.447-.648-.175-10.587.35-28.605,4.738-39.521a23.052,23.052,0,0,1,2.7-5.031c.088-.118.171-.236.254-.355,2.023-2.833,3.3-5.622,5.114-7.606v0a.206.206,0,0,0,.031-.031.058.058,0,0,0,.017-.013l12.453-6.6.534,15.01.381,10.789Z" transform="translate(-364.147 -385.826)" fill="#3f3d56"/>
  <path id="Path_24" data-name="Path 24" d="M650.391,561.964l3.637,7.782,1.27,2.71,3.419,17.9,1.706,1.813,1.47-6.431.691-.142,12.458-2.58,3.631,11.533a6.9,6.9,0,0,0-1.252-8.638c-.248-.224-.455-.443-.449-.65.207-12.452-.555-35.19-7.434-44.549-2.185-2.97-3.5-5.928-5.4-7.995-.006-.006-.006-.012-.012-.012l-4.641-7.6-.283-.467-.319-.159Z" transform="translate(-480.05 -386.072)" fill="#3f3d56"/>
  <circle id="Ellipse_5" data-name="Ellipse 5" cx="17.103" cy="17.103" r="17.103" transform="translate(131.206 85.456)" fill="#ffb6b6"/>
  <path id="Path_25" data-name="Path 25" d="M585.225,378.628a1.443,1.443,0,0,0-1.032-.457l.257-.714a1.354,1.354,0,0,0-1.52-1.8l-.937.18.088-.626a1.356,1.356,0,0,0-1.815-1.466,1.445,1.445,0,0,1-1.244-.088,1.476,1.476,0,0,1-.737-1l-.326-1.574-.035-.084a12.217,12.217,0,0,0-8.383-5.281,35.976,35.976,0,0,0-10.029-.008,9.168,9.168,0,0,0-4.007,1.013,3.5,3.5,0,0,0-1.746,3.236c-3.243-.994-6.721.99-8.444,3.493-2.042,2.978-2.376,6.709-2.43,9.626-.146,6.9,1.278,12.547,4.222,16.785.215.307.269.948.695,1.163l-.088-.142c.476.238.96.622.779,1.032-.518,1.182,2.925,3.8,5.351,4.66,4.425,1.578,10.31,1.443,14.447.875l.146-.979c1.493-.2,2.545-.591,2.84-1.2.522-.445.967-.844,1.355-1.213l0,0c.008-.008.023-.019.031-.027,1.869-1.792,2.3-2.813,2.5-4.368a12.53,12.53,0,0,0-.487-4.464c7.193,1.113-2.833-7.661,3.869-9.358a2.094,2.094,0,0,1,.234-.057c.2-.046.391-.092.58-.146a10.15,10.15,0,0,0,2.579-1.1c1.873-1.14,2.491-2.652,3.458-4.356A1.315,1.315,0,0,0,585.225,378.628Z" transform="translate(-413.801 -288.017)" fill="#2f2e41"/>
  <path id="Path_26" data-name="Path 26" d="M569.79,585.7c0,.672-.011,1.612-.042,2.775l-.012.5c-.05,2.138-.1,3.93-.18,5.922,0,.138-.008.273-.015.411-.108,2.779-.276,6.015-.568,11.139-.541,9.465-1.485,1.3-2.433,4.621-.046.165-.1.361-.142.591a10.715,10.715,0,0,1-.722,2.43c-.5.3-1.021.587-1.531.875-1.455.81-2.932,1.589-4.422,2.33-.837.414-1.677.821-2.522,1.213-.134.061-.265.123-.4.18a103.968,103.968,0,0,1-13.338,5.089c-.89.269-1.777.53-2.675.772-.936.261-1.873.507-2.821.737a102.442,102.442,0,0,1-21.529,2.913c-.979.031-1.965.042-2.956.042-.491,0-.975,0-1.466-.008-.15,0-.3,0-.449-.008-.434-.012-.883-.019-1.336-.031a102.346,102.346,0,0,1-25.85-4.157l-.357-.1c-.553-.169-1.1-.334-1.65-.51q-3.8-1.2-7.488-2.695-2.815-1.134-5.565-2.433a.132.132,0,0,1-.046-.023c-.384-.177-.772-.361-1.155-.549-.05-.027-.1-.054-.157-.081q-2.148-1.048-4.249-2.2c-1.178-2.706-2.837-3.224-3.865-5.6a9.928,9.928,0,0,1-.645-2.2c0-.008,0-.015,0-.027.107,1.428-.457-2.533,0-.015,0-.046-.008-.1-.011-.154-.011-.138-.027-.307-.05-.518-1.316-12.854-1.232-27.555-1.8-39.668q-.058-1.174-.119-2.249c-.012-.238-.027-.472-.042-.7.027-.069.058-.142.092-.211a.383.383,0,0,1,.027-.058.607.607,0,0,1,.038-.069l.027-.038a.358.358,0,0,1,.019-.038c.035-.054.073-.111.115-.165.019-.023.034-.042.054-.061a.3.3,0,0,1,.046-.054.242.242,0,0,1,.042-.05c.015-.015.031-.034.05-.054a.115.115,0,0,1,.031-.031.772.772,0,0,1,.1-.1,3.675,3.675,0,0,1,.438-.345c.054-.035.111-.069.165-.108a7.339,7.339,0,0,1,1.217-.583c.146-.054.292-.1.449-.157.058-.015.111-.034.169-.054.084-.027.169-.054.257-.073.438-.131.91-.242,1.42-.345.061-.011.127-.023.192-.038.092-.019.188-.034.284-.05l.4-.069c1.14-.18,2.433-.315,3.861-.4l.4-.023.476-.023c.134-.008.273-.011.411-.015s.272-.012.414-.015c.388-.011.787-.023,1.194-.031,1.159-.023,2.38-.015,3.662.011.595.015,1.2.031,1.823.058.042,0,.081,0,.119,0,.541.019,1.086.042,1.647.073.392.019.787.038,1.182.061.372.023.748.046,1.128.073.3.015.591.038.89.058.253.019.507.038.76.054l.345.023c.188.015.376.027.568.046l1.274.1,1.293.115c.434.038.871.081,1.309.123l.13.012c.4.042.8.081,1.2.123.092.008.188.015.28.027.384.039.776.084,1.164.125l.357.038c.3.033.6.062.909.1.4.046.814.088,1.213.142.311.035.622.069.933.108.488.057.983.119,1.478.184.188.023.376.046.564.073,1.413.177,2.84.372,4.291.576,2.2.311,4.433.649,6.682,1.013s4.519.75,6.8,1.155c.576.1,1.151.207,1.731.315l.783.15c.445.081.89.165,1.336.249s.891.169,1.336.257l1.593.311c3.489.691,6.959,1.428,10.344,2.2.557.127,1.113.257,1.666.384q1.658.386,3.286.783c.3.069.595.142.89.215.737.184,1.474.368,2.2.556l.127.035c.534.13,1.056.265,1.578.4q1.848.484,3.635.979,1.186.328,2.345.664c1.155.334,2.288.672,3.389,1.013.273.085.545.169.814.25.806.249,1.6.5,2.372.756.614.2,1.213.4,1.8.606s1.171.407,1.739.61c.365.13.725.269,1.086.4.518.192,1.029.384,1.528.576.153.058.3.119.453.177.1.042.188.077.28.115.18.073.365.142.541.215s.357.142.534.219.349.142.518.215.341.142.51.219c.142.058.28.119.414.18.272.119.545.238.81.361.131.061.261.119.392.18l.3.138c.042.023.084.042.127.061l.292.142c.223.1.441.215.656.319.288.146.568.292.837.434s.537.292.791.434l.123.069c.058.031.115.065.173.1.2.111.384.226.572.338.369.227.718.449,1.044.672.073.05.142.1.215.146.242.173.472.342.687.514,0,0,0,0,0,0,.073.054.142.111.211.165s.119.1.177.154c.2.173.384.338.553.507a2.165,2.165,0,0,1,.161.165.452.452,0,0,1,.061.061c.077.077.146.154.211.23a.215.215,0,0,1,.027.035c.092.107.177.215.257.322.038.054.081.108.115.161s.092.134.131.2.065.111.1.165a2.808,2.808,0,0,1,.207.434,2.011,2.011,0,0,1,.1.315A2.24,2.24,0,0,1,569.79,585.7Z" transform="translate(-360.993 -408.592)" fill="#2f2e41"/>
  <path id="Path_27" data-name="Path 27" d="M569.783,585.708c0,.672-.012,1.612-.042,2.775,0,.161-.012.326-.015.495-.038,1.631-.1,3.646-.177,5.923,0,.138-.008.272-.015.41-.107,2.779-.276,6.015-.568,11.139-.541,9.465-1.486,1.3-2.434,4.621-2.633-1.62-5.519-3.316-8.605-5.059q-.835-.472-1.685-.948c-6.172-3.443-13.065-7.051-20.262-10.624-.284-.142-.572-.284-.856-.422a512.577,512.577,0,0,0-49.056-21.364c-2.813-1.021-5.5-1.942-8.026-2.752a89.113,89.113,0,0,0-13.457-3.4c-3.685-.537-6.229-.345-7.258.764q-.057-1.175-.119-2.249-.023-.357-.046-.7c.024-.063.054-.123.084-.184,0-.009.007-.018.012-.027a.372.372,0,0,1,.027-.057.65.65,0,0,1,.038-.069.409.409,0,0,1,.046-.077c.035-.054.073-.111.115-.165a1.348,1.348,0,0,1,.1-.115.246.246,0,0,1,.042-.05c.015-.015.031-.034.05-.054a.114.114,0,0,1,.031-.031.8.8,0,0,1,.1-.1,3.7,3.7,0,0,1,.438-.345c.054-.034.111-.069.165-.107a7.342,7.342,0,0,1,1.217-.584c.146-.054.292-.1.449-.157.058-.015.111-.035.169-.054.084-.027.169-.054.257-.073.438-.13.91-.242,1.42-.345.154-.031.315-.061.476-.088l.4-.069c1.14-.18,2.433-.315,3.861-.4l.4-.023.476-.023c.134-.008.273-.012.411-.016s.273-.011.415-.015c.388-.011.787-.023,1.194-.031,1.159-.019,2.38-.011,3.662.015.595.012,1.2.031,1.823.058.038,0,.081,0,.119,0,.541.015,1.09.042,1.647.069.392.019.787.038,1.182.061.372.023.748.046,1.128.073.3.015.591.038.89.058.253.019.507.038.76.054l.914.069,1.274.1,1.293.115c.434.038.871.081,1.309.123l.13.012c.4.042.8.081,1.2.123q3.351.34,6.9.795,2.119.271,4.291.58c2.2.311,4.433.649,6.682,1.009s4.519.75,6.8,1.155c.576.1,1.151.207,1.731.315q1.059.2,2.119.4c.445.084.891.169,1.336.257l1.593.311c3.489.691,6.959,1.428,10.344,2.2.557.127,1.113.257,1.666.384q1.658.386,3.286.783l.89.219q1.111.276,2.2.553v0c.042.008.084.019.127.031.53.134,1.055.269,1.578.407q1.848.484,3.635.975c.791.222,1.574.441,2.345.664,1.155.338,2.288.676,3.389,1.013.272.084.545.169.814.25q1.209.38,2.372.756c.614.2,1.213.4,1.8.606s1.171.407,1.739.61c.368.131.729.265,1.086.4.522.192,1.029.384,1.528.58.154.058.3.119.453.177.28.107.553.219.821.33.18.069.357.142.534.219s.349.142.518.215.342.142.511.219c.142.058.28.119.414.18.273.119.545.238.81.361.131.061.261.119.392.18l.3.138c.042.023.084.042.127.061.326.154.641.307.948.461.288.146.568.292.837.434.319.169.622.334.914.5.058.031.115.065.173.1.2.111.384.226.572.338.369.226.718.449,1.044.672s.622.441.9.66c0,0,0,0,0,0,.134.107.265.215.388.319.2.173.384.338.553.507a2.2,2.2,0,0,1,.161.165.449.449,0,0,1,.061.061c.081.088.161.177.238.265.092.107.177.215.257.323.038.054.081.107.115.161s.092.134.13.2.065.111.1.165a2.791,2.791,0,0,1,.207.434,2.318,2.318,0,0,1,.1.315A2.248,2.248,0,0,1,569.783,585.708Z" transform="translate(-360.987 -408.597)" opacity="0.2"/>
</svg>
