<svg xmlns="http://www.w3.org/2000/svg" width="302" height="129.358" viewBox="0 0 302 129.358">
  <g id="projects" transform="translate(0 0)">
    <path id="Path_176" data-name="Path 176" d="M279.644,468.364a2.888,2.888,0,1,0-5.749.38l-8.3,10.867a4.024,4.024,0,0,0,.544,4.418l.651.759,2.987-.6,3.385-2.987-.4-3.385,4.182-6.571-.005,0A2.886,2.886,0,0,0,279.644,468.364Z" transform="translate(-213.357 -396.199)" fill="#ffb9b9"/>
    <path id="Path_177" data-name="Path 177" d="M26.823,392.915l-1.355-5.031,18.761-7.619,2,7.425Z" transform="translate(-17.924 -267.62)" fill="#ffb8b8"/>
    <path id="Path_178" data-name="Path 178" d="M94.626,624.182,90.258,607.96l.205-.055a6.539,6.539,0,0,1,8.014,4.614h0l2.668,9.908Z" transform="translate(-90.258 -496.291)" fill="#2f2e41"/>
    <path id="Path_179" data-name="Path 179" d="M107.268,370.9l-4.214-3.064,9.814-17.711,6.219,4.523Z" transform="translate(-72.527 -246.406)" fill="#ffb8b8"/>
    <path id="Path_180" data-name="Path 180" d="M168.858,638.059l-13.587-9.881.125-.172a6.539,6.539,0,0,1,9.134-1.443h0l8.3,6.035Z" transform="translate(-136.012 -508.701)" fill="#2f2e41"/>
    <path id="Path_181" data-name="Path 181" d="M239.036,540.3l-10.6-10.3a5.355,5.355,0,0,0-7.011-.392L201.4,551.845l1.792,2.788,19.116-12.943,12.944,16.926,12.346-6.173Z" transform="translate(-168.477 -440.554)" fill="#2f2e41"/>
    <path id="Path_182" data-name="Path 182" d="M268.534,567.939l-7.766-.6-5.624-1.363a2.889,2.889,0,1,0-.548,3.749v0l3.385,1.394,14.536,4.978,1.792-1.394Z" transform="translate(-202.555 -466.008)" fill="#ffb9b9"/>
    <path id="Path_183" data-name="Path 183" d="M119.866,365.605l-4.381,2.788h-5.177l-24.095-8.961L50.967,365.8l-1-7.567L82.23,344.1l28.276,9.359Z" transform="translate(-35.168 -242.167)" fill="#2f2e41"/>
    <circle id="Ellipse_22" data-name="Ellipse 22" cx="7.766" cy="7.766" r="7.766" transform="translate(67.572 59.517)" fill="#ffb9b9"/>
    <path id="Path_184" data-name="Path 184" d="M317.369,511.7a44.62,44.62,0,0,1-2.188,13.8l-.582,1.789-2.788,12.744-2.987.8-2.19-2.788-4.381-3.186-3.186-5.177-2.732-4.552-.852-1.422L292.5,508.768l-11.35-6.372-3.783-.6.8-2.19,3.385-4.58,3.385-.4,1-.8.8.4,4.391,1.691,14.236-6.015,2.083.341,7.169,5.974A44.583,44.583,0,0,1,317.369,511.7Z" transform="translate(-221.936 -413.408)" fill="#ccc"/>
    <path id="Path_185" data-name="Path 185" d="M262.312,303.241l-7.567,4.978L243.451,318.4l-.852-1.422-2.39-11.948h.6l6.173-11.35Z" transform="translate(-169.052 -206.686)" opacity="0.1"/>
    <path id="Path_186" data-name="Path 186" d="M232.314,289.649,226.141,301l-3.584,3.983-3.186.8,8.562,9.359,12.147-10.952,7.567-4.978Z" transform="translate(-154.387 -203.847)" fill="#ccc"/>
    <path id="Path_187" data-name="Path 187" d="M317.786,424.826l-.841.324a1.175,1.175,0,0,1-.314-1.631l.014-.02-1.555-.073a11.742,11.742,0,0,1,17.529-1.413c.071-.244.842.231,1.158.712.106-.4.829,1.521,1.085,2.877.118-.451.574.277.175.977.253-.037.367.61.171.971.277-.13.23.642-.07,1.159.395-.035-.034,8.1-5.958,7.5-.412-1.9-.3-1.777-.782-4.214-.226-.24-.474-.458-.721-.677l-1.337-1.18c-1.554-1.372-2.968-3.065-5.039-3.578-1.423-.352-2.323-.432-1.547-2.036-.7.292-1.355.727-2.062,1C317.7,425.3,317.8,425.05,317.786,424.826Z" transform="translate(-248.488 -363.318)" fill="#2f2e41"/>
    <circle id="Ellipse_23" data-name="Ellipse 23" cx="1.394" cy="1.394" r="1.394" transform="translate(77.828 66.785)" fill="#ffb9b9"/>
    <rect id="Rectangle_97" data-name="Rectangle 97" width="6.402" height="6.402" transform="translate(13.793 41.645) rotate(-86.19)" fill="#e6e6e6"/>
    <path id="Path_188" data-name="Path 188" d="M123.117,362.131l7.756.517-.517,7.756-7.756-.517Zm7.4.831-7.082-.472-.472,7.082,7.082.472Z" transform="translate(-113.02 -323.482)" fill="#ccc"/>
    <rect id="Rectangle_98" data-name="Rectangle 98" width="6.402" height="6.402" transform="matrix(0.978, -0.21, 0.21, 0.978, 44.057, 17.662)" fill="#e6e6e6"/>
    <path id="Path_189" data-name="Path 189" d="M227.223,276.51l1.633,7.6-7.6,1.633-1.633-7.6Zm1.232,7.34-1.491-6.939-6.939,1.491,1.491,6.939Z" transform="translate(-181.301 -263.224)" fill="#ccc"/>
    <rect id="Rectangle_99" data-name="Rectangle 99" width="6.402" height="6.402" transform="matrix(0.73, -0.684, 0.684, 0.73, 39.066, 50.75)" fill="#e6e6e6"/>
    <path id="Path_190" data-name="Path 190" d="M227.712,372.518l-5.673,5.314-5.314-5.673,5.673-5.314Zm-5.658,4.836,5.18-4.852-4.852-5.18-5.18,4.852Z" transform="translate(-179.261 -326.799)" fill="#ccc"/>
    <path id="Path_191" data-name="Path 191" d="M591.171,231.659h-189.4a5.213,5.213,0,0,0-5.213,5.213V342.4a5.213,5.213,0,0,0,5.213,5.213h189.4a5.213,5.213,0,0,0,5.213-5.213V236.872a5.213,5.213,0,0,0-5.213-5.213Z" transform="translate(-305.82 -231.659)" fill="#3f3d56"/>
    <rect id="Rectangle_100" data-name="Rectangle 100" width="185.851" height="104.839" transform="translate(97.723 9.213)" fill="#fff"/>
    <circle id="Ellipse_24" data-name="Ellipse 24" cx="1.906" cy="1.906" r="1.906" transform="translate(188.583 2.541)" fill="#fff"/>
    <path id="Path_192" data-name="Path 192" d="M462.591,135.941H329.89V31.1Z" transform="translate(-232.167 -21.889)" fill="#f2f2f2"/>
    <circle id="Ellipse_25" data-name="Ellipse 25" cx="17.865" cy="17.865" r="17.865" transform="translate(108.938 70.478)" fill="#16c389"/>
    <path id="Path_193" data-name="Path 193" d="M478.947,469.622A22.222,22.222,0,1,1,501.169,447.4a22.222,22.222,0,0,1-22.222,22.222Zm0-44.153A21.931,21.931,0,1,0,500.878,447.4a21.931,21.931,0,0,0-21.931-21.931Z" transform="translate(-348.167 -367.853)" fill="#3f3d56"/>
    <rect id="Rectangle_101" data-name="Rectangle 101" width="17.361" height="3.628" transform="translate(223.189 63.68)" fill="#3f3d56"/>
    <rect id="Rectangle_102" data-name="Rectangle 102" width="50.21" height="1.555" transform="translate(206.765 44.027)" fill="#3f3d56"/>
    <rect id="Rectangle_103" data-name="Rectangle 103" width="50.21" height="1.555" transform="translate(206.765 50.135)" fill="#3f3d56"/>
    <rect id="Rectangle_104" data-name="Rectangle 104" width="50.21" height="1.555" transform="translate(206.765 56.243)" fill="#3f3d56"/>
    <rect id="Rectangle_105" data-name="Rectangle 105" width="7.255" height="7.255" transform="translate(263.169 15.487)" fill="#16c389"/>
    <path id="Path_194" data-name="Path 194" d="M993.59,298.874h-8.81v-8.81h8.81Zm-8.427-.383h8.044v-8.044h-8.043Z" transform="translate(-719.797 -272.763)" fill="#ccc"/>
    <path id="Path_195" data-name="Path 195" d="M582.732,606.519H564.595v-1.307a.259.259,0,0,0-.259-.259h-6.219a.259.259,0,0,0-.259.259v1.307h-3.887v-1.307a.259.259,0,0,0-.259-.259h-6.219a.259.259,0,0,0-.259.259h0v1.307h-3.887v-1.307a.259.259,0,0,0-.259-.259h-6.219a.259.259,0,0,0-.259.259h0v1.307h-3.887v-1.307a.259.259,0,0,0-.259-.259h-6.219a.259.259,0,0,0-.259.259v1.307H522.1v-1.307a.259.259,0,0,0-.259-.259h-6.219a.259.259,0,0,0-.259.259h0v1.307h-3.887v-1.307a.259.259,0,0,0-.259-.259H505a.259.259,0,0,0-.259.259h0v1.307h-3.887v-1.307a.259.259,0,0,0-.259-.259H451.88a.259.259,0,0,0-.259.259h0v1.307h-3.887v-1.307a.259.259,0,0,0-.259-.259h-6.218a.259.259,0,0,0-.259.259h0v1.307h-3.887v-1.307a.259.259,0,0,0-.259-.259h-6.219a.259.259,0,0,0-.259.259h0v1.307h-3.887v-1.307a.259.259,0,0,0-.259-.259H420.01a.259.259,0,0,0-.259.259h0v1.307h-3.887v-1.307a.259.259,0,0,0-.259-.259h-6.219a.259.259,0,0,0-.259.259h0v1.307H405.24v-1.307a.259.259,0,0,0-.259-.259h-6.219a.259.259,0,0,0-.259.259v1.307h-3.887v-1.307a.259.259,0,0,0-.259-.259h-6.219a.259.259,0,0,0-.259.259h0v1.307H375.961a6.219,6.219,0,0,0-6.219,6.219v2.812a6.219,6.219,0,0,0,6.219,6.219H582.732a6.219,6.219,0,0,0,6.219-6.219v-2.812a6.219,6.219,0,0,0-6.218-6.219Z" transform="translate(-286.951 -494.373)" fill="#3f3d56"/>
  </g>
</svg>
