<svg xmlns="http://www.w3.org/2000/svg" width="224" height="166.849" viewBox="0 0 224 166.849">
  <g id="study" transform="translate(0 0)">
    <circle id="Ellipse_5" data-name="Ellipse 5" cx="17.519" cy="17.519" r="17.519" transform="translate(58.726 82.168)" fill="#e5e5e5"/>
    <path id="Path_30" data-name="Path 30" d="M410.1,466.684A17.521,17.521,0,0,0,439.3,485.226,17.521,17.521,0,1,1,410.1,466.684Z" transform="translate(-346.794 -378.698)" opacity="0.2"/>
    <path id="Path_31" data-name="Path 31" d="M276.628,364.626h.048l.866,49.67h-1.829Z" transform="translate(-200.334 -264.939)" fill="#cbcbcb"/>
    <circle id="Ellipse_6" data-name="Ellipse 6" cx="21.102" cy="21.102" r="21.102" transform="translate(85.667 50.275)" fill="#e5e5e5"/>
    <path id="Path_32" data-name="Path 32" d="M544.405,354.38a21.1,21.1,0,0,1-35.162,22.334,21.1,21.1,0,1,0,35.162-22.334Z" transform="translate(-422.055 -297.097)" opacity="0.2"/>
    <path id="Path_33" data-name="Path 33" d="M387.389,261.075h-.058L386.287,320.9h2.2Z" transform="translate(-280.678 -189.698)" fill="#cbcbcb"/>
    <path id="Path_34" data-name="Path 34" d="M426.2,327.458l2.865-2.292a3.036,3.036,0,0,0-3.515,1.929,4.88,4.88,0,0,0-3.632.224l5.733,2.081A4.338,4.338,0,0,0,426.2,327.458Z" transform="translate(-358.607 -275.848)" fill="#cbcbcb"/>
    <path id="Path_35" data-name="Path 35" d="M399.785,255.131l2.865-2.292a3.036,3.036,0,0,0-3.515,1.929,4.88,4.88,0,0,0-3.632.224l5.733,2.081A4.338,4.338,0,0,0,399.785,255.131Z" transform="translate(-339.412 -223.295)" fill="#cbcbcb"/>
    <path id="Path_36" data-name="Path 36" d="M548.243,301.893l2.865-2.292a3.036,3.036,0,0,0-3.515,1.929,4.88,4.88,0,0,0-3.632.224l5.733,2.081A4.338,4.338,0,0,0,548.243,301.893Z" transform="translate(-447.282 -257.272)" fill="#cbcbcb"/>
    <path id="Path_37" data-name="Path 37" d="M549.266,618.975a2.064,2.064,0,0,1,2.357-2.03" transform="translate(-451.136 -487.862)" fill="#cbcbcb"/>
    <path id="Path_38" data-name="Path 38" d="M605.107,618.975a2.064,2.064,0,0,1,2.357-2.03" transform="translate(-491.71 -487.862)" fill="#cbcbcb"/>
    <path id="Path_39" data-name="Path 39" d="M588.848,618.975a2.064,2.064,0,0,1,2.357-2.03" transform="translate(-479.897 -487.862)" fill="#cbcbcb"/>
    <path id="Path_40" data-name="Path 40" d="M528.045,618.975a2.064,2.064,0,0,0-2.357-2.03" transform="translate(-434.004 -487.862)" fill="#cbcbcb"/>
    <path id="Path_41" data-name="Path 41" d="M562.885,619.556a2.064,2.064,0,0,0-2.357-2.03" transform="translate(-459.319 -488.285)" fill="#cbcbcb"/>
    <path id="Path_42" data-name="Path 42" d="M441.266,684.975a2.064,2.064,0,0,1,2.357-2.03" transform="translate(-372.663 -535.818)" fill="#cbcbcb"/>
    <path id="Path_43" data-name="Path 43" d="M497.107,684.975a2.064,2.064,0,0,1,2.357-2.03" transform="translate(-413.237 -535.818)" fill="#cbcbcb"/>
    <path id="Path_44" data-name="Path 44" d="M480.848,684.975a2.064,2.064,0,0,1,2.357-2.03" transform="translate(-401.423 -535.818)" fill="#cbcbcb"/>
    <path id="Path_45" data-name="Path 45" d="M420.045,684.975a2.064,2.064,0,0,0-2.357-2.03" transform="translate(-355.531 -535.818)" fill="#cbcbcb"/>
    <path id="Path_46" data-name="Path 46" d="M454.885,685.556a2.064,2.064,0,0,0-2.357-2.03" transform="translate(-380.846 -536.24)" fill="#cbcbcb"/>
    <rect id="Rectangle_75" data-name="Rectangle 75" width="29.378" height="2.618" transform="translate(155.065 41.476)" fill="#3f3d56"/>
    <rect id="Rectangle_76" data-name="Rectangle 76" width="29.378" height="2.618" transform="translate(155.065 51.119)" fill="#3f3d56"/>
    <rect id="Rectangle_77" data-name="Rectangle 77" width="29.378" height="2.618" transform="translate(155.065 59.758)" fill="#3f3d56"/>
    <path id="Path_47" data-name="Path 47" d="M717.1,292.274a3.415,3.415,0,1,1,3.415,3.415h0A3.419,3.419,0,0,1,717.1,292.274Z" transform="translate(-573.085 -249.489)" fill="#16c389"/>
    <path id="Path_48" data-name="Path 48" d="M717.1,327.548a3.415,3.415,0,1,1,3.415,3.415h0a3.419,3.419,0,0,1-3.416-3.415Z" transform="translate(-573.085 -275.119)" fill="#16c389"/>
    <path id="Path_49" data-name="Path 49" d="M717.1,359.147a3.415,3.415,0,1,1,3.415,3.415h0A3.419,3.419,0,0,1,717.1,359.147Z" transform="translate(-573.085 -298.079)" fill="#16c389"/>
    <path id="Path_50" data-name="Path 50" d="M420.312,201.858l-.432-.335,11.059-14.239H445.4v.547h-14.2Z" transform="translate(-305.086 -136.081)" fill="#3f3d56"/>
    <rect id="Rectangle_78" data-name="Rectangle 78" width="29.378" height="2.618" transform="translate(0 72.643)" fill="#3f3d56"/>
    <rect id="Rectangle_79" data-name="Rectangle 79" width="29.378" height="2.618" transform="translate(0 82.287)" fill="#3f3d56"/>
    <rect id="Rectangle_80" data-name="Rectangle 80" width="29.378" height="2.618" transform="translate(0 90.926)" fill="#3f3d56"/>
    <path id="Path_51" data-name="Path 51" d="M316.641,409.689h0a3.415,3.415,0,1,1,3.415-3.415A3.415,3.415,0,0,1,316.641,409.689Z" transform="translate(-279.628 -332.322)" fill="#16c389"/>
    <path id="Path_52" data-name="Path 52" d="M316.641,444.963h0a3.415,3.415,0,1,1,3.415-3.415A3.415,3.415,0,0,1,316.641,444.963Z" transform="translate(-279.628 -357.952)" fill="#16c389"/>
    <path id="Path_53" data-name="Path 53" d="M316.641,476.562h0a3.415,3.415,0,1,1,3.415-3.415A3.415,3.415,0,0,1,316.641,476.562Z" transform="translate(-279.628 -380.912)" fill="#16c389"/>
    <path id="Path_54" data-name="Path 54" d="M186.5,315.858,175.6,301.831h-14.2v-.547h14.463l.082.106,10.977,14.133Z" transform="translate(-117.28 -218.914)" fill="#3f3d56"/>
    <rect id="Rectangle_81" data-name="Rectangle 81" width="29.378" height="2.618" transform="translate(102.027 2.107)" fill="#3f3d56"/>
    <rect id="Rectangle_82" data-name="Rectangle 82" width="29.378" height="2.618" transform="translate(102.027 11.75)" fill="#3f3d56"/>
    <rect id="Rectangle_83" data-name="Rectangle 83" width="29.378" height="2.618" transform="translate(102.027 20.39)" fill="#3f3d56"/>
    <path id="Path_55" data-name="Path 55" d="M523.1,148.274a3.415,3.415,0,1,1,3.415,3.415h0A3.419,3.419,0,0,1,523.1,148.274Z" transform="translate(-432.124 -144.858)" fill="#16c389"/>
    <path id="Path_56" data-name="Path 56" d="M523.1,183.548a3.415,3.415,0,1,1,3.415,3.415h0A3.419,3.419,0,0,1,523.1,183.548Z" transform="translate(-432.124 -170.488)" fill="#16c389"/>
    <path id="Path_57" data-name="Path 57" d="M523.1,215.147a3.415,3.415,0,1,1,3.415,3.415h0A3.419,3.419,0,0,1,523.1,215.147Z" transform="translate(-432.124 -193.448)" fill="#16c389"/>
    <path id="Path_58" data-name="Path 58" d="M226.312,57.858l-.432-.335,11.059-14.239H251.4v.547h-14.2Z" transform="translate(-164.125 -31.45)" fill="#3f3d56"/>
    <path id="Path_59" data-name="Path 59" d="M750.2,584.4h-1.845l-.878-7.118H750.2Z" transform="translate(-543.117 -419.457)" fill="#ffb7b7"/>
    <path id="Path_60" data-name="Path 60" d="M933.679,748.364h-5.95v-.075a2.316,2.316,0,0,1,2.316-2.316h3.635Z" transform="translate(-726.128 -581.63)" fill="#2f2e41"/>
    <path id="Path_61" data-name="Path 61" d="M721.2,584.4h-1.845l-.878-7.118H721.2Z" transform="translate(-522.046 -419.457)" fill="#ffb7b7"/>
    <path id="Path_62" data-name="Path 62" d="M904.679,748.364h-5.95v-.075a2.316,2.316,0,0,1,2.316-2.316h3.635Z" transform="translate(-705.057 -581.63)" fill="#2f2e41"/>
    <path id="Path_63" data-name="Path 63" d="M706.423,429.8l-2.5,3.976,4.2,40.123,4.386.266.922-34.654,1.538,18.523-.608,16.13,4.516.219,2.683-23.4,2.021-18.509-3.964-3.691Z" transform="translate(-511.473 -311.556)" fill="#2f2e41"/>
    <path id="Path_64" data-name="Path 64" d="M911.158,466.142l-6.835.273L897.99,497.66s10.294,5.108,14.465.465l2.507-1.837Z" transform="translate(-704.52 -378.304)" fill="#16c389"/>
    <path id="Path_65" data-name="Path 65" d="M942.631,466.142l6.015,3.505-2.222,14.675,1.949,14.963-6.329-1.031s-1.3-13.932-.455-18.306S942.631,466.142,942.631,466.142Z" transform="translate(-735.993 -378.304)" fill="#3f3d56"/>
    <path id="Path_66" data-name="Path 66" d="M893.613,467.142l-7.2,3.694.548,16.253L883.25,499.4s7.406,2.37,8.68-1.344S893.613,467.142,893.613,467.142Z" transform="translate(-693.81 -379.031)" fill="#3f3d56"/>
    <path id="Path_67" data-name="Path 67" d="M949.658,579.309a1.827,1.827,0,0,0,.675-2.718l2.172-3.564-1.844-1.848-3,5.077a1.836,1.836,0,0,0,1.994,3.054Z" transform="translate(-740.136 -454.624)" fill="#ffb7b7"/>
    <path id="Path_68" data-name="Path 68" d="M952.619,480.236l2.867-2.272s2.712,2.219,2.645,4.346.745,13.459.745,13.459L954.4,509.237l-3.332-2.666,3.9-10.515-3.076-8.972Z" transform="translate(-743.087 -386.893)" fill="#3f3d56"/>
    <path id="Path_69" data-name="Path 69" d="M883.791,581.47a1.826,1.826,0,0,1-.286-2.786l-1.648-3.835,2.086-1.57,2.252,5.448a1.836,1.836,0,0,1-2.4,2.743Z" transform="translate(-692.798 -456.15)" fill="#ffb7b7"/>
    <path id="Path_70" data-name="Path 70" d="M882.765,482.683l-2.519-2.654s-3,1.815-3.23,3.931-2.633,13.22-2.633,13.22l2.534,13.964,3.675-2.17-2.384-10.959,4.309-8.45Z" transform="translate(-687.368 -388.395)" fill="#3f3d56"/>
    <circle id="Ellipse_7" data-name="Ellipse 7" cx="4.668" cy="4.668" r="4.668" transform="translate(198.77 76.459)" fill="#ffb7b7"/>
    <path id="Path_71" data-name="Path 71" d="M920.343,419.359a2.434,2.434,0,0,0-1.375.327,2.025,2.025,0,0,1-1.383.241,1.417,1.417,0,0,1-.869-.963,4.189,4.189,0,0,1-.118-1.338l.5.287-.34-.571,4.845-.535c1.466-.162,3.109-.275,4.249.66a4.236,4.236,0,0,1,1.222,1.96c.967,2.961,2.065,7.274-2.9,8.155-.692-.191.437-2.738.425-3.456a1.592,1.592,0,0,0-1.116-1.635l-.519.722c.332-.462-.847-1.964-1.141-2.257a4.672,4.672,0,0,1-.71-.753C920.878,419.844,920.876,419.453,920.343,419.359Z" transform="translate(-718.034 -342.377)" fill="#2f2e41"/>
    <path id="Path_72" data-name="Path 72" d="M877.871,753.689H828.933a.273.273,0,0,1,0-.547h48.938a.273.273,0,1,1,0,.547Z" transform="translate(-654.145 -586.839)" fill="#cbcbcb"/>
  </g>
</svg>
