<svg xmlns="http://www.w3.org/2000/svg" width="376" height="190.5" viewBox="0 0 376 190.5">
  <path id="Subtraction_3" data-name="Subtraction 3" d="M-2928.5,203.5h-327a23.843,23.843,0,0,1-16.971-7.029,23.844,23.844,0,0,1-7.03-16.971V32.815a175.656,175.656,0,0,1,28.488-10.243,237.331,237.331,0,0,1,28.168-5.945A241.712,241.712,0,0,1-3187.4,14a240.053,240.053,0,0,1,93.56,19.061,242.708,242.708,0,0,0,94.644,19.051c6.337,0,12.784-.244,19.16-.724,41.234-3.107,70.154-15.481,75.533-17.93V179.5a23.844,23.844,0,0,1-7.03,16.971A23.843,23.843,0,0,1-2928.5,203.5Z" transform="translate(3280 -13.5)" fill="#16c389" stroke="#707070" stroke-width="1"/>
</svg>
