<svg id="webDev" xmlns="http://www.w3.org/2000/svg" width="114.179" height="59.163" viewBox="0 0 114.179 59.163">
  <rect id="Rectangle_87" data-name="Rectangle 87" width="33.782" height="59.887" transform="translate(40.644 33.198) rotate(-74.21)" fill="#3f3d56"/>
  <circle id="Ellipse_14" data-name="Ellipse 14" cx="0.477" cy="0.477" r="0.477" transform="translate(50.355 1.573)" fill="#16c389"/>
  <circle id="Ellipse_15" data-name="Ellipse 15" cx="0.477" cy="0.477" r="0.477" transform="translate(51.824 1.989)" fill="#16c389"/>
  <circle id="Ellipse_16" data-name="Ellipse 16" cx="0.477" cy="0.477" r="0.477" transform="translate(53.294 2.404)" fill="#16c389"/>
  <path id="Path_128" data-name="Path 128" d="M740.869,351.365a5.575,5.575,0,0,0-2.329.055,5.568,5.568,0,0,0,.165-2.353,5.533,5.533,0,0,0-2.082,1.343,5.534,5.534,0,0,0-1.07-2.234,5.565,5.565,0,0,0-1.092,2.091A5.575,5.575,0,0,0,732.506,349a4.468,4.468,0,0,0,2.971,5.231l.007.009,0,0,.048.018s.007-.034.016-.095l.017-.021,0,.027c-.024.056-.036.089-.036.089l.051.01v.006l.011,0a4.468,4.468,0,0,0,5.27-2.9Z" transform="translate(-660.449 -330.047)" fill="#16c389"/>
  <circle id="Ellipse_17" data-name="Ellipse 17" cx="1.241" cy="1.241" r="1.241" transform="translate(76.323 14.321)" fill="#16c389"/>
  <rect id="Rectangle_88" data-name="Rectangle 88" width="38.754" height="0.843" transform="translate(55.853 21.127) rotate(15.79)" fill="#16c389"/>
  <rect id="Rectangle_89" data-name="Rectangle 89" width="6.682" height="6.682" transform="translate(58.201 26.156) rotate(15.79)" fill="#16c389"/>
  <rect id="Rectangle_90" data-name="Rectangle 90" width="6.682" height="6.682" transform="translate(70.142 29.532) rotate(15.79)" fill="#16c389"/>
  <rect id="Rectangle_91" data-name="Rectangle 91" width="6.682" height="6.682" transform="translate(82.083 32.909) rotate(15.79)" fill="#16c389"/>
  <rect id="Rectangle_92" data-name="Rectangle 92" width="4.964" height="0.573" transform="translate(56.846 34.105) rotate(15.79)" fill="#16c389"/>
  <rect id="Rectangle_93" data-name="Rectangle 93" width="4.964" height="0.573" transform="translate(68.787 37.482) rotate(15.79)" fill="#16c389"/>
  <rect id="Rectangle_94" data-name="Rectangle 94" width="4.964" height="0.573" transform="translate(80.727 40.858) rotate(15.79)" fill="#16c389"/>
  <ellipse id="Ellipse_18" data-name="Ellipse 18" cx="31.944" cy="1.181" rx="31.944" ry="1.181" transform="translate(0.63 43.416)" fill="#d0cde1"/>
  <ellipse id="Ellipse_19" data-name="Ellipse 19" cx="24.858" cy="1.181" rx="24.858" ry="1.181" transform="translate(64.464 56.801)" fill="#d0cde1"/>
  <path id="Path_129" data-name="Path 129" d="M778.172,621h7.171v3h-4.172v3h4.173v3h-7.172Zm8.606,0h7.172v2.608h-4.172v.522h4.172v6h-7.171v-2.739h4.172v-.522h-4.173V621Zm8.606,0h7.172v2.608h-4.172v.522h4.172v6h-7.172v-2.739h4.172v-.522h-4.172V621Z" transform="translate(-701.042 -572.185)" fill="#3f3d56"/>
  <path id="Path_130" data-name="Path 130" d="M220.926,499h2.958v2.923h2.706V499h2.959v8.851h-2.958v-2.964h-2.706v2.964h-2.958V499Zm12.514,2.935h-2.6V499H239v2.935H236.4v5.916H233.44v-5.916h0ZM240.3,499h3.085l1.9,3.11,1.9-3.11h3.086v8.851h-2.946v-4.387l-2.035,3.147h-.051l-2.037-3.147v4.387H240.3Zm11.436,0H254.7v5.926h4.16v2.926h-7.12V499Z" transform="translate(-206.474 -463.907)" fill="#3f3d56"/>
  <path id="Path_131" data-name="Path 131" d="M80.119,366.091l-.243,2.752,1.942-.162v-2.347Z" transform="translate(-70.892 -324.914)" fill="#ffb8b8"/>
  <path id="Path_132" data-name="Path 132" d="M52.792,366.091l.243,2.752-1.942-.162v-2.347Z" transform="translate(-45.345 -324.914)" fill="#ffb8b8"/>
  <path id="Path_133" data-name="Path 133" d="M132.815,365.276s.648,3.885.648,4.452-.243,4.209-.648,4.937-.486,1.052-.324,1.376.081.243,0,.486-.243.162,0,.486a.85.85,0,0,1,0,.971c-.162.243.324,6.8-.324,7.285s-.809,2.1-.809,2.1l-2.1-.243v-1.781a3.644,3.644,0,0,1-.162-2.1,35.129,35.129,0,0,0,.486-5.1,1.608,1.608,0,0,1,0-.648.36.36,0,0,0-.162-.486c-.162-.081-.243-.4-.243-.4l-.243-5.909-.971,5.828s.971,7.932,0,8.984v1.862h-2.1l.324-2.023s-.648-1.862-.324-2.266-.971-6.88-.809-7.123.081-.324,0-.486-.324-.324-.243-.486a.928.928,0,0,0,0-.486s-1.538-7.608-.809-8.337S132.815,365.276,132.815,365.276Z" transform="translate(-120.269 -345.224)" fill="#2f2e41"/>
  <path id="Path_134" data-name="Path 134" d="M167.525,563.742s.162-.776,1.457-.51a3.487,3.487,0,0,1,.324,1c0,.324.324,2.509.324,2.509s1.3,2.185-.324,2.185-2.185-.567-2.266-1.133.081-.728-.243-.971-.486-.243-.4-.567.243-1.943.243-1.943.081-1.214.526-.89l.445.324" transform="translate(-158.055 -520.865)" fill="#2f2e41"/>
  <path id="Path_135" data-name="Path 135" d="M136.006,563.742s-.162-.776-1.457-.51a3.487,3.487,0,0,0-.324,1c0,.324-.324,2.509-.324,2.509s-1.3,2.185.324,2.185,2.185-.567,2.266-1.133-.081-.728.243-.971.486-.243.4-.567-.243-1.943-.243-1.943-.081-1.214-.526-.89l-.445.324" transform="translate(-128.802 -520.865)" fill="#2f2e41"/>
  <circle id="Ellipse_20" data-name="Ellipse 20" cx="2.185" cy="2.185" r="2.185" transform="translate(7.365 0.789)" fill="#ffb8b8"/>
  <path id="Path_136" data-name="Path 136" d="M153.177,216.319a34.744,34.744,0,0,1-1.052,3.561c-.162.081,3.723.4,3.723.4s-.971-2.995,0-3.48Z" transform="translate(-145.406 -213.021)" fill="#ffb8b8"/>
  <path id="Path_137" data-name="Path 137" d="M135.4,235.171h0l-2.669,1.846.486,14.488s3.561-.4,4.371-.324a15.794,15.794,0,0,0,3.4-.728l-1.134-13.614a1.118,1.118,0,0,0-1.036-1.023l-.486-.034a1.352,1.352,0,0,1-1.947.582A1.7,1.7,0,0,1,135.4,235.171Z" transform="translate(-128.201 -229.753)" fill="#d0cde1"/>
  <path id="Path_138" data-name="Path 138" d="M120.72,234l-3.3,1.573-.648,9.308s-1.3,5.585-.243,7.2a4.1,4.1,0,0,0,2.833,1.781s2.347-9.308,1.7-12.465A32.836,32.836,0,0,1,120.72,234Z" transform="translate(-113.454 -228.714)" fill="#575a89"/>
  <path id="Path_139" data-name="Path 139" d="M101.217,358.8v1.214s-.486,2.671,1.052,2.59.809-2.914.809-2.914l-.486-.89Z" transform="translate(-100.165 -339.475)" fill="#ffb8b8"/>
  <path id="Path_140" data-name="Path 140" d="M215,379.11l-.162,1.376s.809,2.752-.728,2.833-.422-2.816-.422-2.816l.5-1.555Z" transform="translate(-199.704 -357.358)" fill="#ffb8b8"/>
  <path id="Path_141" data-name="Path 141" d="M178.862,238.085h0a9.532,9.532,0,0,1,3.986,2.072l.014.012-1.133,5.989-.162,2.185s2.995,10.684-.486,9.146c0,0-2.995-9.308-2.59-13.6S178.862,238.085,178.862,238.085Z" transform="translate(-168.779 -232.339)" fill="#575a89"/>
  <path id="Path_142" data-name="Path 142" d="M202.057,255.74a4.2,4.2,0,0,1,1.052.112s1.781,6.282,1.781,7.334.243,7.042.243,7.042l-2.137.215-1.729-8.322Z" transform="translate(-189.026 -247.991)" fill="#575a89"/>
  <path id="Path_143" data-name="Path 143" d="M96.969,247.981H96.4s-1.619.648-1.7,1.376-2.266,8.094-2.266,8.094L93,261.174l2.1-.324.4-4.128,2.1-4.533Z" transform="translate(-92.436 -241.122)" fill="#575a89"/>
  <path id="Path_144" data-name="Path 144" d="M154.641,190.584l.084-.584c.02-.136.1-.315.232-.278.113.031.358.128.4.1.154-.109.387.082.549-.015.068-.041.112-.127.191-.133a.217.217,0,0,1,.14.063.953.953,0,0,0,.363.2.39.39,0,0,0,.382-.1.2.2,0,0,1,.067-.065.152.152,0,0,1,.1,0l.413.113a1.589,1.589,0,0,0-.213-1.308,2.631,2.631,0,0,0-.6-.59q-.384-.292-.793-.55a2.575,2.575,0,0,0-.963-.419,1.029,1.029,0,0,0-.958.318.617.617,0,0,1-.222-.3.227.227,0,0,0,.015.348l-.35-.223c-.1.1.094.29.01.406a.214.214,0,0,1-.094.061,1.6,1.6,0,0,0-.513.323,1.913,1.913,0,0,0-.4.744,2.348,2.348,0,0,0-.064,1.843c.034.063.477,1.111.536,1.151.2.138.07-.2.213,0,.112.154.091-.435.258-.305a.415.415,0,0,0,.452.02c.069-.048.047-.314.01-.558a.288.288,0,0,1,.35-.324A1.254,1.254,0,0,0,154.641,190.584Z" transform="translate(-145.514 -187)" fill="#2f2e41"/>
  <path id="Path_145" data-name="Path 145" d="M117.655,134.02l.89,7.366h-.567Z" transform="translate(-104.421 -118.946)" opacity="0.2"/>
  <path id="Path_146" data-name="Path 146" d="M30.629,108.834l-.45,2.833.855-2.833h-.4Z" transform="translate(-26.785 -96.593)" opacity="0.2"/>
</svg>
